<svg width="38" height="54" viewBox="0 0 38 54" fill="none" xmlns="http://www.w3.org/2000/svg">
<path d="M30.969 24.9945C33.7812 23.5237 35.5407 20.9334 35.1297 16.6181C34.5762 10.7207 29.6164 8.74323 23.3553 8.18007L23.3543 0.999852C23.3542 0.447625 22.9065 0 22.3543 0H19.5028C18.9506 0 18.5029 0.447611 18.5028 0.99983L18.5017 7.96495C17.2253 7.96495 15.9242 7.99069 14.629 8.01737L14.628 1.00086C14.628 0.448663 14.1803 0.00104272 13.6281 0.000989714L10.7811 0.000716418C10.2289 0.000663402 9.78111 0.448327 9.78104 1.00061L9.78025 8.17867C8.72985 8.2007 7.69831 8.22164 6.69108 8.22164V8.19744L1.00042 8.19507C0.447902 8.19484 -9.41019e-05 8.64272 1.48266e-08 9.19524L0.000561667 12.4924C0.00065702 13.0522 0.459614 13.503 1.01933 13.495C2.07349 13.4799 3.56239 13.4662 3.52417 13.5097C5.48837 13.5111 6.12972 14.6821 6.31418 15.6929L6.31568 25.0117V38.1016C6.2292 38.7359 5.86527 39.7495 4.49186 39.7514C4.53437 39.7898 2.88563 39.7756 1.82724 39.7627C1.33063 39.7566 0.904145 40.1144 0.824801 40.6046L0.188431 44.5367C0.0900122 45.1448 0.559549 45.6965 1.17559 45.6965H6.31267C7.4888 45.6979 8.64441 45.7166 9.77814 45.7259L9.78185 52.9994C9.78213 53.5514 10.2296 53.9987 10.7816 53.9989L13.6274 53.9997C14.1799 53.9999 14.6278 53.552 14.6277 52.9995L14.6265 45.814C15.9597 45.842 17.2464 45.8541 18.5033 45.8523L18.5021 52.9998C18.502 53.5522 18.9498 54 19.5021 54H22.3533C22.9054 54 23.3531 53.5525 23.3533 53.0003L23.3556 45.7411C31.5098 45.2603 37.2184 43.1515 37.9282 35.2898C38.5002 28.9604 35.5985 26.1351 30.969 24.9945ZM14.7449 13.8706C17.4808 13.8706 26.0854 12.9762 26.0866 18.8437C26.0854 24.469 17.4836 23.8119 14.7449 23.8119V13.8706ZM14.7428 39.7917L14.7449 28.8306C18.0321 28.8296 28.3425 27.8595 28.3438 34.3087C28.3452 40.4934 18.0321 39.7892 14.7428 39.7917Z" fill="#1A1A1A"/>
</svg>
