<svg width="53" height="52" viewBox="0 0 53 52" fill="none" xmlns="http://www.w3.org/2000/svg">
<path fill-rule="evenodd" clip-rule="evenodd" d="M26.8574 47C38.4554 47 47.8574 37.598 47.8574 26C47.8574 14.402 38.4554 5 26.8574 5C15.2594 5 5.85742 14.402 5.85742 26C5.85742 37.598 15.2594 47 26.8574 47ZM26.8574 52C41.2168 52 52.8574 40.3594 52.8574 26C52.8574 11.6406 41.2168 0 26.8574 0C12.498 0 0.857422 11.6406 0.857422 26C0.857422 40.3594 12.498 52 26.8574 52ZM26.8574 13.0999C28.2381 13.0999 29.3574 14.2192 29.3574 15.5999V23.5H37.2574C38.6381 23.5 39.7574 24.6193 39.7574 26C39.7574 27.3807 38.6381 28.5 37.2574 28.5H29.3574V36.3999C29.3574 37.7806 28.2381 38.8999 26.8574 38.8999C25.4767 38.8999 24.3574 37.7806 24.3574 36.3999V28.5H16.4574C15.0767 28.5 13.9574 27.3807 13.9574 26C13.9574 24.6193 15.0767 23.5 16.4574 23.5H24.3574V15.5999C24.3574 14.2192 25.4767 13.0999 26.8574 13.0999Z" fill="#1A1A1A"/>
</svg>
