<svg width="33" height="47" viewBox="0 0 33 47" fill="none" xmlns="http://www.w3.org/2000/svg">
<path d="M11.0509 6.75817C12.2494 5.52941 14.177 4.91503 16.8337 4.91503C19.2906 4.91503 21.1283 5.43725 22.3468 6.4817C23.5653 7.50566 24.1845 8.86754 24.2045 10.5673C24.1845 11.5708 23.8949 12.5538 23.3356 13.5163C22.8249 14.3765 22.256 15.2366 21.6287 16.0967H3.17138C1.81413 16.0967 0.713867 17.197 0.713867 18.5542C0.713867 19.9115 1.81413 21.0118 3.17138 21.0118H30.2563C31.6136 21.0118 32.7139 19.9115 32.7139 18.5542C32.7139 17.197 31.6136 16.0967 30.2563 16.0967H27.9825C28.3196 15.5922 28.5983 15.0597 28.8187 14.4993C29.3181 13.2296 29.5778 11.9394 29.5978 10.6288C29.5978 8.29412 29.0984 6.33834 28.0996 4.76144C27.1009 3.18453 25.6527 1.99673 23.7551 1.19804C21.8574 0.399346 19.5503 0 16.8337 0C13.5578 0 10.9411 0.552941 8.98353 1.65882C7.02598 2.74423 5.60775 4.16754 4.72885 5.92876C4.29695 6.81436 3.97112 7.73361 3.75134 8.68653C3.38616 10.2699 4.73634 11.6118 6.36129 11.6118C7.97499 11.6118 9.19101 10.2521 9.77936 8.74952C10.0729 7.99971 10.4968 7.33593 11.0509 6.75817Z" fill="#1A1A1A"/>
<path d="M6.73634 44.266C9.19327 46.0887 12.4991 47 16.6539 47C19.4305 47 21.8574 46.5904 23.9348 45.7712C26.0322 44.9316 27.6702 43.6619 28.8487 41.9621C29.5566 40.9412 30.0518 39.7577 30.3345 38.4117C30.6659 36.8338 29.3095 35.5111 27.6972 35.5111C26.0951 35.5111 24.9077 36.8682 24.2565 38.3321C23.8722 39.196 23.2855 39.894 22.4966 40.4261C20.9785 41.4296 19.031 41.9211 16.6539 41.9007C14.1371 41.9211 12.1995 41.4296 10.8412 40.4261C9.50288 39.4227 8.84371 38.0505 8.86368 36.3098C8.84371 35.1015 9.07342 33.9956 9.55282 32.9922C9.9848 32.1064 10.6634 31.2053 11.5886 30.2889H30.2563C31.6136 30.2889 32.7139 29.1886 32.7139 27.8314C32.7139 26.4741 31.6136 25.3739 30.2564 25.3739H3.17138C1.81413 25.3739 0.713867 26.4741 0.713867 27.8314C0.713867 29.1886 1.81413 30.2889 3.17138 30.2889H5.23044C4.69928 30.9064 4.26242 31.6027 3.91986 32.3778C3.36056 33.6885 3.0909 34.9991 3.11087 36.3098C3.0909 39.7708 4.29939 42.4229 6.73634 44.266Z" fill="#1A1A1A"/>
</svg>
