<svg width="52" height="50" viewBox="0 0 52 50" fill="none" xmlns="http://www.w3.org/2000/svg">
<path fill-rule="evenodd" clip-rule="evenodd" d="M18.8913 0.5C11.8773 0.5 6.19129 6.18598 6.19129 13.2C6.19129 15.8023 6.97452 18.2231 8.31804 20.2377L7.12504 21.4307L4.33906 18.6447C3.36275 17.6684 1.77983 17.6684 0.803522 18.6447C-0.172789 19.621 -0.172789 21.2039 0.803522 22.1803L3.58951 24.9662L0.803522 27.7522C-0.172789 28.7285 -0.172789 30.3115 0.803522 31.2878C1.77983 32.2641 3.36275 32.2641 4.33906 31.2878L7.12504 28.5018L9.91103 31.2878C10.8873 32.2641 12.4703 32.2641 13.4466 31.2878C14.4229 30.3115 14.4229 28.7285 13.4466 27.7522L10.6606 24.9662L11.8536 23.7732C13.8682 25.1168 16.2889 25.9 18.8913 25.9C25.9053 25.9 31.5913 20.214 31.5913 13.2C31.5913 6.18598 25.9053 0.5 18.8913 0.5ZM11.1913 13.2C11.1913 8.94741 14.6387 5.5 18.8913 5.5C23.1439 5.5 26.5913 8.94741 26.5913 13.2C26.5913 17.4526 23.1439 20.9 18.8913 20.9C16.7661 20.9 14.8428 20.0397 13.449 18.6471L13.4455 18.6436C12.0521 17.2497 11.1913 15.3259 11.1913 13.2Z" fill="#1A1A1A"/>
<path fill-rule="evenodd" clip-rule="evenodd" d="M40.3838 17.84C39.0031 17.84 37.8838 18.9593 37.8838 20.34C37.8838 21.7207 39.0031 22.84 40.3838 22.84H43.4558L40.209 26.0868C38.1944 24.7432 35.7736 23.96 33.1713 23.96C26.1573 23.96 20.4713 29.646 20.4713 36.66C20.4713 43.674 26.1573 49.36 33.1713 49.36C40.1853 49.36 45.8713 43.674 45.8713 36.66C45.8713 34.0577 45.0881 31.6369 43.7445 29.6223L46.9913 26.3755V29.4475C46.9913 30.8282 48.1106 31.9475 49.4913 31.9475C50.872 31.9475 51.9913 30.8282 51.9913 29.4475V20.34C51.9913 18.9593 50.872 17.84 49.4913 17.84H40.3838ZM25.4713 36.66C25.4713 32.4074 28.9187 28.96 33.1713 28.96C35.2957 28.96 37.2185 29.8198 38.6122 31.2115L38.6178 31.2171C40.0107 32.6109 40.8713 34.5345 40.8713 36.66C40.8713 40.9126 37.4239 44.36 33.1713 44.36C28.9187 44.36 25.4713 40.9126 25.4713 36.66Z" fill="#1A1A1A"/>
</svg>
