<svg width="32" height="50" viewBox="0 0 32 50" fill="none" xmlns="http://www.w3.org/2000/svg">
<path d="M7.54632 49.9039H25.4007C29.2653 49.9039 31.8418 47.3726 31.8418 43.621V6.55622C31.8418 2.80455 29.2653 0.295898 25.4007 0.295898H7.54632C3.61384 0.295898 0.992188 2.80455 0.992188 6.55622V43.621C0.992188 47.3726 3.61384 49.9039 7.54632 49.9039ZM8.31473 45.2482C6.5293 45.2482 5.51228 44.2764 5.51228 42.5587V7.61844C5.51228 5.90081 6.5293 4.92899 8.31473 4.92899H9.24135V6.05901C9.24135 7.05343 9.89676 7.70884 10.8686 7.70884H21.988C22.9598 7.70884 23.6152 7.05343 23.6152 6.05901V4.92899H24.5193C26.3047 4.92899 27.3217 5.92341 27.3217 7.64104V42.5587C27.3217 44.2764 26.3047 45.2482 24.5193 45.2482H8.31473ZM10.394 43.4627H22.4626C23.118 43.4627 23.6152 43.0107 23.6152 42.3101C23.6152 41.6321 23.118 41.1801 22.4626 41.1801H10.394C9.73856 41.1801 9.24135 41.6321 9.24135 42.3101C9.24135 43.0107 9.73856 43.4627 10.394 43.4627Z" fill="#1A1A1A"/>
</svg>
