<svg width="67" height="43" viewBox="0 0 67 43" fill="none" xmlns="http://www.w3.org/2000/svg">
<path d="M0.154297 33.0442C0.154297 38.5587 3.77037 42.0166 8.99107 42.0166C11.9743 42.0166 14.6638 40.7284 16.6978 38.4005L20.7207 33.7222C21.2857 33.0442 21.8733 32.7504 22.5739 32.7504H43.9766C44.6772 32.7504 45.2648 33.0442 45.8298 33.7222L49.8527 38.4005C51.8867 40.7284 54.5762 42.0166 57.5594 42.0166C62.7801 42.0166 66.3962 38.5587 66.3962 33.0442C66.3962 30.6712 65.8764 27.9817 64.995 24.9985C63.5938 20.3202 61.1755 14.0146 58.8703 9.15555C56.904 5.04227 55.8418 3.03083 50.8697 1.90081C46.5078 0.906389 40.5413 0.250977 33.2866 0.250977C26.0318 0.250977 20.0427 0.906389 15.6808 1.90081C10.7313 3.03083 9.64648 5.04227 7.68025 9.15555C5.375 14.0146 2.95675 20.3202 1.55552 24.9985C0.674107 27.9817 0.154297 30.6712 0.154297 33.0442ZM4.40318 32.999C4.40318 31.6204 4.71959 29.9706 5.4202 27.5749C6.93443 22.3542 9.55608 15.6193 11.8161 10.6472C12.9009 8.27413 13.5338 6.94071 16.2006 6.3079C20.3591 5.33608 26.1674 4.68066 33.2866 4.68066C40.3831 4.68066 46.214 5.33608 50.3725 6.3079C53.0393 6.94071 53.627 8.27413 54.7344 10.6472C57.0396 15.6193 59.5709 22.3542 61.1529 27.5749C61.8535 29.9706 62.1473 31.6204 62.1473 32.999C62.1473 35.9145 60.1133 37.6999 57.4464 37.6999C55.8192 37.6999 54.2146 36.8411 52.9263 35.3495L48.3836 30.1966C47.2762 28.9083 46.3722 28.2981 44.4286 28.2981H22.1445C20.1783 28.2981 19.2743 28.9083 18.1669 30.1966L13.6468 35.3495C12.3585 36.8411 10.7313 37.6999 9.12667 37.6999C6.43722 37.6999 4.40318 35.9145 4.40318 32.999ZM14.822 16.7267C14.822 17.9923 15.613 18.7833 16.8786 18.7833H20.6755V22.4672C20.6755 23.7328 21.4439 24.5465 22.6869 24.5465C23.9074 24.5465 24.6758 23.7328 24.6758 22.4672V18.7833H28.2467C29.6253 18.7833 30.4615 17.9923 30.4615 16.7267C30.4615 15.5063 29.6253 14.7153 28.2467 14.7153H24.6758V11.054C24.6758 9.78836 23.9074 8.97475 22.6869 8.97475C21.4439 8.97475 20.6755 9.78836 20.6755 11.054V14.7153H16.8786C15.613 14.7153 14.822 15.5063 14.822 16.7267ZM47.3892 16.5233C49.2877 16.5233 50.7341 15.0769 50.7341 13.1784C50.7341 11.28 49.2877 9.81097 47.3892 9.81097C45.536 9.81097 44.0444 11.28 44.0444 13.1784C44.0444 15.0769 45.536 16.5233 47.3892 16.5233ZM40.6769 23.3034C42.5753 23.3034 44.0218 21.857 44.0218 19.9812C44.0218 18.0827 42.5753 16.6137 40.6769 16.6137C38.8011 16.6137 37.332 18.0827 37.332 19.9812C37.332 21.857 38.8011 23.3034 40.6769 23.3034Z" fill="#1A1A1A"/>
</svg>
