<svg width="56" height="44" viewBox="0 0 56 44" fill="none" xmlns="http://www.w3.org/2000/svg">
<path d="M5.0445 43.7169H7.77916C9.49679 43.7169 10.8302 42.3834 10.8302 40.6658V36.9819C15.8023 37.2757 22.5824 37.4565 28.1422 37.4565C33.6793 37.4565 40.4594 37.2757 45.4315 36.9819V40.6658C45.4315 42.3834 46.7649 43.7169 48.5052 43.7169H51.2172C52.9575 43.7169 54.2909 42.3834 54.2909 40.6658V34.7219C55.0367 33.8405 55.4435 32.6652 55.4435 31.2188V27.2411C55.4435 23.2635 54.7429 21.026 52.5958 18.314L50.5844 15.7827C49.7482 11.7146 48.2566 7.44315 47.4655 5.77072C46.1999 3.10386 43.7591 1.52183 40.6402 1.09242C38.9904 0.86642 34.1539 0.753418 28.1422 0.753418C22.1304 0.753418 17.2713 0.889021 15.6441 1.09242C12.5253 1.47663 10.0618 3.10386 8.81878 5.77072C8.02776 7.44315 6.53613 11.7146 5.69992 15.7827L3.68848 18.314C1.54143 21.026 0.84082 23.2635 0.84082 27.2411V31.2188C0.84082 32.6652 1.24763 33.8405 1.99344 34.7219V40.6658C1.99344 42.3834 3.32687 43.7169 5.0445 43.7169ZM28.1422 33.7953C20.3902 33.7953 10.7624 33.4337 7.10114 33.0043C5.15751 32.7783 4.43429 31.7838 4.43429 30.0662V27.0377C4.43429 23.9867 5.0219 22.5402 6.60393 20.4384L9.04478 17.2517C9.60979 14.2233 11.0788 9.52239 12.0054 7.51095C12.7739 5.90632 14.2203 4.9797 16.1865 4.7311C17.746 4.52769 22.153 4.34689 28.1422 4.34689C34.1313 4.34689 38.6062 4.55029 40.0526 4.7311C42.0866 4.9797 43.4879 5.92892 44.2563 7.53355C45.2281 9.49979 46.6519 14.1781 47.2169 17.2517L49.6578 20.4384C51.2624 22.5402 51.8274 23.9867 51.8274 27.0377V30.0662C51.8274 31.7838 51.1042 32.7783 49.1832 33.0043C45.5219 33.4337 35.8941 33.7953 28.1422 33.7953ZM12.1184 14.9917C11.8924 15.9183 12.2992 16.3477 13.2711 16.3025C16.5933 16.0991 20.7744 15.8957 28.1422 15.8957C35.5099 15.8957 39.691 16.0991 42.9907 16.3025C43.9851 16.3477 44.3693 15.9183 44.1659 14.9917C43.6687 12.8221 42.742 9.9744 42.0866 8.84438C41.4538 7.71436 40.7306 7.23975 39.3972 7.05894C37.8604 6.85554 34.1765 6.69734 28.1422 6.69734C22.1078 6.69734 18.4014 6.85554 16.8871 7.05894C15.5537 7.23975 14.8079 7.71436 14.1977 8.84438C13.5423 9.9744 12.6157 12.8221 12.1184 14.9917ZM11.7794 30.8798C13.9491 30.8798 15.5763 29.2526 15.5763 27.1055C15.5763 24.9359 13.9491 23.3087 11.7794 23.3087C9.63239 23.3087 8.00516 24.9359 8.00516 27.1055C8.00516 29.2526 9.63239 30.8798 11.7794 30.8798ZM44.4823 30.8798C46.6519 30.8798 48.2792 29.2526 48.2792 27.1055C48.2792 24.9359 46.6519 23.3087 44.4823 23.3087C42.3352 23.3087 40.708 24.9359 40.708 27.1055C40.708 29.2526 42.3352 30.8798 44.4823 30.8798ZM22.04 29.9306H34.2443C35.8489 29.9306 36.9789 28.8006 36.9789 27.1959C36.9789 25.5913 35.8489 24.4613 34.2443 24.4613H22.04C20.4128 24.4613 19.2828 25.5913 19.2828 27.1959C19.2828 28.8006 20.4128 29.9306 22.04 29.9306Z" fill="#1A1A1A"/>
</svg>
