<svg width="47" height="35" viewBox="0 0 47 35" fill="none" xmlns="http://www.w3.org/2000/svg">
<path d="M44.5 12.4128C44.5 14.9046 43.7945 17.6396 42.2508 20.6411C42.3603 20.0415 42.4171 19.4353 42.4171 18.8227C42.4171 17.5743 42.0513 15.8467 40.4033 14.9246C39.7232 14.5206 38.8407 14.1352 37.8428 14.1352H37.6782L37.5149 14.1568C36.1981 14.331 35.5234 14.3895 35.3132 14.3895C33.8602 14.3895 32.7852 13.8927 31.8895 12.8603L31.8808 12.8502L31.8719 12.8402C30.9257 11.7728 30.4268 10.4771 30.4268 8.80087C30.4268 6.84342 30.9991 5.35691 32.0577 4.16964C33.0141 3.12746 34.3799 2.5 36.4769 2.5C38.9299 2.5 40.7701 3.33559 42.2206 4.9876C43.661 6.69831 44.5 9.08868 44.5 12.4128ZM9.91604 14.1352H9.75137L9.58813 14.1568C8.27131 14.331 7.59656 14.3895 7.38644 14.3895C5.96113 14.3895 4.89372 13.9042 3.9957 12.8911L3.98577 12.8799L3.9757 12.8688C3.01116 11.8066 2.5 10.5047 2.5 8.80087C2.5 6.68298 3.10202 5.20668 4.12783 4.12537C5.1167 3.11449 6.52443 2.5 8.65124 2.5C10.9796 2.5 12.7813 3.31828 14.2503 4.9957C15.7203 6.70703 16.5732 9.09363 16.5732 12.4128C16.5732 14.9559 15.8755 17.6573 14.3651 20.5364C14.4476 20.0367 14.4903 19.5333 14.4903 19.0262C14.4903 17.8687 14.1801 16.6773 13.3467 15.6869C12.4437 14.6138 11.2014 14.1352 9.91604 14.1352Z" stroke="#1A1A1A" stroke-width="5"/>
</svg>
