<svg width="53" height="52" viewBox="0 0 53 52" fill="none" xmlns="http://www.w3.org/2000/svg">
<path fill-rule="evenodd" clip-rule="evenodd" d="M26.8574 47C38.4554 47 47.8574 37.598 47.8574 26C47.8574 14.402 38.4554 5 26.8574 5C15.2594 5 5.85742 14.402 5.85742 26C5.85742 37.598 15.2594 47 26.8574 47ZM26.8574 52C41.2168 52 52.8574 40.3594 52.8574 26C52.8574 11.6406 41.2168 0 26.8574 0C12.498 0 0.857422 11.6406 0.857422 26C0.857422 40.3594 12.498 52 26.8574 52ZM24.665 21.5C24.665 20.8106 24.2777 20.2678 24.0005 19.9439C23.6818 19.5716 23.2614 19.2096 22.8083 18.8709C21.8952 18.1884 20.7015 17.4922 19.5169 16.8898C18.3289 16.2857 17.1103 15.7558 16.133 15.4157C15.649 15.2472 15.1934 15.1144 14.8168 15.0482C14.632 15.0158 14.4259 14.9919 14.2264 15.0026C14.0839 15.0102 13.6858 15.042 13.3644 15.3777C13.1574 15.5938 12.9976 15.9176 13 16.3114C13.0021 16.656 13.1286 16.9158 13.2157 17.0597C13.3811 17.3327 13.6216 17.5388 13.7843 17.6686C14.1324 17.9461 14.6376 18.2622 15.1314 18.5712L15.1761 18.5991C16.0011 19.1153 16.8897 19.6741 17.5753 20.2702C17.916 20.5664 18.1653 20.8374 18.3226 21.0758C18.4804 21.3149 18.4994 21.4498 18.4994 21.5C18.4994 21.5502 18.4804 21.6851 18.3226 21.9242C18.1653 22.1626 17.916 22.4336 17.5753 22.7298C16.8897 23.3259 16.0011 23.8847 15.1761 24.4009L15.1315 24.4288C14.6376 24.7378 14.1324 25.0538 13.7843 25.3314C13.6216 25.4612 13.3811 25.6673 13.2157 25.9403C13.1286 26.0842 13.0021 26.344 13 26.6886C12.9976 27.0824 13.1574 27.4062 13.3644 27.6223C13.6858 27.958 14.0839 27.9898 14.2264 27.9974C14.4259 28.0081 14.632 27.9842 14.8168 27.9518C15.1934 27.8856 15.649 27.7528 16.133 27.5843C17.1103 27.2442 18.3289 26.7143 19.5169 26.1102C20.7015 25.5078 21.8952 24.8116 22.8083 24.1291C23.2614 23.7904 23.6818 23.4284 24.0005 23.0561C24.2777 22.7322 24.665 22.1894 24.665 21.5ZM40.6356 15.3777C40.3142 15.042 39.9161 15.0102 39.7736 15.0026C39.5741 14.9919 39.368 15.0158 39.1832 15.0482C38.8066 15.1144 38.351 15.2472 37.867 15.4157C36.8897 15.7558 35.6711 16.2857 34.4831 16.8898C33.2985 17.4922 32.1048 18.1884 31.1917 18.8709C30.7386 19.2096 30.3182 19.5716 29.9995 19.9439C29.7223 20.2678 29.335 20.8106 29.335 21.5C29.335 22.1894 29.7223 22.7322 29.9995 23.0561C30.3182 23.4284 30.7386 23.7904 31.1917 24.1291C32.1048 24.8116 33.2985 25.5078 34.4831 26.1102C35.6711 26.7143 36.8897 27.2442 37.867 27.5843C38.351 27.7528 38.8066 27.8856 39.1832 27.9518C39.368 27.9842 39.5741 28.0081 39.7736 27.9974C39.9161 27.9898 40.3142 27.958 40.6356 27.6223C40.8426 27.4062 41.0024 27.0824 41 26.6886C40.9979 26.344 40.8714 26.0842 40.7843 25.9403C40.6189 25.6673 40.3784 25.4612 40.2157 25.3314C39.8676 25.0538 39.3624 24.7378 38.8685 24.4288L38.8239 24.4009C37.9989 23.8847 37.1103 23.3259 36.4247 22.7298C36.084 22.4336 35.8347 22.1626 35.6774 21.9242C35.5196 21.6851 35.5006 21.5502 35.5006 21.5C35.5006 21.4498 35.5196 21.3149 35.6774 21.0758C35.8347 20.8374 36.084 20.5664 36.4247 20.2702C37.1103 19.6741 37.9989 19.1153 38.8239 18.5991L38.8686 18.5712C39.3624 18.2622 39.8676 17.9461 40.2157 17.6686C40.3784 17.5388 40.6189 17.3327 40.7843 17.0597C40.8714 16.9158 40.9979 16.6561 41 16.3114C41.0024 15.9176 40.8426 15.5938 40.6356 15.3777ZM15.0004 32C16.8973 32.4306 21.9529 33.2919 27 33.2919C32.0471 33.2919 37.1027 32.4306 38.9996 32C39.0359 34.7512 36.7815 41 27 41C17.2185 41 14.9641 34.7512 15.0004 32Z" fill="#1A1A1A"/>
</svg>
