<svg width="47" height="43" viewBox="0 0 47 43" fill="none" xmlns="http://www.w3.org/2000/svg">
<path d="M8.14258 42.2651H39.2634C44.1677 42.2651 46.7215 39.7339 46.7215 34.8974V7.39265C46.7215 2.55615 44.1677 0.0249023 39.2634 0.0249023H8.14258C3.26088 0.0249023 0.707031 2.53355 0.707031 7.39265V34.8974C0.707031 39.7339 3.26088 42.2651 8.14258 42.2651ZM8.11998 37.7676C6.24414 37.7676 5.20452 36.7958 5.20452 34.807V14.0146C5.20452 12.0257 6.24414 11.0539 8.11998 11.0539H39.286C41.1618 11.0539 42.2015 12.0257 42.2015 14.0146V34.807C42.2015 36.7958 41.1618 37.7676 39.286 37.7676H8.11998ZM11.9847 19.1675H35.4665C36.2801 19.1675 36.8904 18.5347 36.8904 17.6985C36.8904 16.9074 36.2801 16.2972 35.4665 16.2972H11.9847C11.1484 16.2972 10.5382 16.9074 10.5382 17.6985C10.5382 18.5347 11.1484 19.1675 11.9847 19.1675ZM11.9847 25.8346H35.4665C36.2801 25.8346 36.8904 25.2244 36.8904 24.4334C36.8904 23.6198 36.2801 22.9644 35.4665 22.9644H11.9847C11.1484 22.9644 10.5382 23.6198 10.5382 24.4334C10.5382 25.2244 11.1484 25.8346 11.9847 25.8346ZM11.9847 32.5017H26.8105C27.6242 32.5017 28.2344 31.8915 28.2344 31.1005C28.2344 30.2869 27.6242 29.6541 26.8105 29.6541H11.9847C11.1484 29.6541 10.5382 30.2869 10.5382 31.1005C10.5382 31.8915 11.1484 32.5017 11.9847 32.5017Z" fill="#1A1A1A"/>
</svg>
