<svg width="60" height="40" viewBox="0 0 60 40" fill="none" xmlns="http://www.w3.org/2000/svg">
<path fill-rule="evenodd" clip-rule="evenodd" d="M15.3374 19.5651C15.3374 11.521 21.8584 5 29.9025 5C37.8612 5 44.3291 11.3833 44.4655 19.3095C40.6996 20.9632 36.1187 22.5712 31.0704 23.9239C26.021 25.2768 21.2487 26.1748 17.16 26.6255C15.9987 24.5342 15.3374 22.1269 15.3374 19.5651ZM11.7857 26.9662C11.208 25.5536 10.7907 24.0583 10.5565 22.503C9.16922 23.293 8.0364 24.054 7.18272 24.7584C6.4637 25.3516 6.03521 25.8297 5.80809 26.1689C5.98309 26.2546 6.25361 26.3626 6.66233 26.4753C7.81907 26.7942 9.54039 26.9814 11.7857 26.9662ZM10.5228 16.8605C7.88873 18.1732 5.65029 19.5406 4.00067 20.9016C2.98129 21.7427 2.07363 22.6728 1.46234 23.6875C0.84856 24.7064 0.398921 26.0524 0.789977 27.5119C1.40774 29.8174 3.62965 30.8258 5.33357 31.2955C7.23011 31.8183 9.65062 32.0091 12.3387 31.9595C13.0892 31.9457 13.8717 31.9128 14.6831 31.8611C18.2699 36.2951 23.7551 39.1303 29.9025 39.1303C39.6748 39.1303 47.7738 31.9658 49.2333 22.6028C49.9609 22.2423 50.6543 21.8799 51.3103 21.5171C53.6631 20.216 55.6639 18.8405 57.045 17.4395C58.2858 16.1807 59.7058 14.1965 59.088 11.891C58.7174 10.5077 57.7404 9.58734 56.7568 9.00829C55.7838 8.43544 54.6156 8.07602 53.4082 7.84451C51.2195 7.42486 48.4436 7.34211 45.3317 7.53317C41.751 2.94797 36.171 0 29.9025 0C20.0147 0 11.84 7.33496 10.5228 16.8605ZM48.1284 12.4364C48.6844 13.8568 49.0791 15.3581 49.2901 16.9177C51.2435 15.8076 52.6414 14.7843 53.4841 13.9294C53.7818 13.6275 53.962 13.3987 54.0707 13.237C53.7531 13.0807 53.2372 12.9028 52.4666 12.7551C51.338 12.5387 49.878 12.4262 48.1284 12.4364ZM43.3448 25.1828C41.1461 30.4379 35.9555 34.1303 29.9025 34.1303C26.5834 34.1303 23.5235 33.02 21.0741 31.1507C24.6002 30.6118 28.4234 29.8095 32.3645 28.7535C36.3072 27.6971 40.0207 26.4797 43.3448 25.1828ZM5.63658 26.4889C5.63637 26.4889 5.63707 26.4856 5.6393 26.4786C5.63791 26.4853 5.63679 26.4888 5.63658 26.4889ZM54.3738 13.4227C54.377 13.4262 54.3788 13.4279 54.379 13.4279C54.379 13.4279 54.3787 13.4275 54.378 13.4268C54.3772 13.4259 54.3758 13.4246 54.3738 13.4227Z" fill="#1A1A1A"/>
</svg>
