<svg width="61" height="47" viewBox="0 0 61 47" fill="none" xmlns="http://www.w3.org/2000/svg">
<path d="M49.5031 40.8182L53.9554 22.7605C57.2776 22.7605 60.0801 19.9806 60.0801 16.5227C60.0801 13.1101 57.2776 10.3076 53.8424 10.3076C50.4071 10.3076 47.6272 13.1101 47.6272 16.5227C47.6272 17.2234 47.7402 17.8788 47.9436 18.489L42.5647 21.8112C41.8641 22.2407 41.4347 22.1277 41.0505 21.5852L34.0218 12.1157C35.6038 10.9856 36.6434 9.13239 36.6434 7.03055C36.6434 3.61789 33.841 0.81543 30.4283 0.81543C26.9704 0.81543 24.1906 3.59528 24.1906 7.03055C24.1906 9.13239 25.2302 10.9856 26.8348 12.1157L19.7835 21.6078C19.4219 22.105 19.0151 22.2181 18.3597 21.8112L12.9129 18.4438C13.0938 17.8336 13.2068 17.2008 13.2068 16.5227C13.2068 13.1101 10.4269 10.3076 6.99163 10.3076C3.53376 10.3076 0.753906 13.1101 0.753906 16.5227C0.753906 19.9354 3.51116 22.7153 6.90123 22.7605L11.3309 40.8182C12.2575 44.5699 14.2916 46.4457 18.1789 46.4457H42.6777C46.565 46.4457 48.5991 44.5699 49.5031 40.8182ZM30.4283 9.2906C29.1853 9.2906 28.1682 8.27358 28.1682 7.03055C28.1682 5.76493 29.1853 4.79311 30.4283 4.79311C31.6487 4.79311 32.6657 5.81013 32.6657 7.03055C32.6657 8.27358 31.6713 9.2906 30.4283 9.2906ZM16.8454 25.6985C18.6535 26.7607 21.2073 26.6477 22.7893 24.5233L30.4283 14.2401L38.135 24.5911C39.6719 26.6929 42.2031 26.8059 43.8982 25.7889L49.7743 22.2407L46.9492 33.7895H13.8848L11.0597 22.1729L16.8454 25.6985ZM6.99163 18.7828C5.7486 18.7828 4.73158 17.7658 4.73158 16.5227C4.73158 15.2797 5.7486 14.2853 6.99163 14.2853C8.21205 14.2853 9.22907 15.3023 9.22907 16.5227C9.22907 17.7658 8.23465 18.7828 6.99163 18.7828ZM53.8424 18.7828C52.5767 18.7828 51.6049 17.7658 51.6049 16.5227C51.6049 15.3023 52.6219 14.2853 53.8424 14.2853C55.0854 14.2853 56.1024 15.2797 56.1024 16.5227C56.1024 17.7658 55.0854 18.7828 53.8424 18.7828ZM18.1336 42.2872C16.6646 42.2872 15.7832 41.6092 15.4668 40.2306L14.9018 37.9706H45.9322L45.3898 40.2306C45.0508 41.6092 44.192 42.2872 42.7003 42.2872H18.1336Z" fill="#1A1A1A"/>
</svg>
