<svg width="52" height="46" viewBox="0 0 52 46" fill="none" xmlns="http://www.w3.org/2000/svg">
<path d="M7.93499 45.1467H44.6381C49.4972 45.1467 51.9833 42.7058 51.9833 37.8919V15.7435C51.9833 10.9522 49.4972 8.48877 44.6381 8.48877H39.8242V6.09312C39.8242 2.63525 37.6094 0.578613 33.8351 0.578613H18.738C14.9637 0.578613 12.7489 2.63525 12.7489 6.09312V8.48877H7.93499C3.09849 8.48877 0.589844 10.9522 0.589844 15.7435V37.8919C0.589844 42.7058 3.09849 45.1467 7.93499 45.1467ZM16.9752 6.31913C16.9752 5.1439 17.7888 4.39809 19.0318 4.39809H33.5413C34.8069 4.39809 35.5979 5.1439 35.5979 6.31913V8.48877H16.9752V6.31913ZM5.08733 15.8791C5.08733 13.8451 6.14955 12.8281 8.11579 12.8281H44.4573C46.4235 12.8281 47.4632 13.8451 47.4632 15.8791V18.8398C41.2254 20.9868 34.0611 22.049 26.2866 22.049C18.512 22.049 11.3477 20.9868 5.08733 18.8398V15.8791ZM8.11579 40.8074C6.14955 40.8074 5.08733 39.813 5.08733 37.7563V23.2017C9.72042 24.6029 14.7603 25.5069 20.0036 25.8911V27.6765C20.0036 29.3942 20.998 30.3434 22.7609 30.3434H29.8122C31.5751 30.3434 32.5469 29.3942 32.5469 27.6765V25.8911C37.8128 25.5069 42.8301 24.6029 47.4632 23.2017V37.7563C47.4632 39.813 46.4235 40.8074 44.4573 40.8074H8.11579Z" fill="#1A1A1A"/>
</svg>
