<svg width="48" height="46" viewBox="0 0 48 46" fill="none" xmlns="http://www.w3.org/2000/svg">
<path d="M3.48577 45.0337C4.23158 45.0337 4.9096 44.7851 5.81362 44.2653L16.7974 38.344L28.7757 45.0563C29.7249 45.5761 30.7193 45.8247 31.6911 45.8247C32.6403 45.8247 33.567 45.5987 34.4032 45.1015L45.6356 38.7734C47.195 37.8919 47.873 36.6489 47.873 34.9313V4.57889C47.873 2.65785 46.7204 1.50523 44.822 1.50523C44.0762 1.50523 43.3982 1.79904 42.4715 2.29625L31.0809 8.62437L19.2383 1.48263C18.3795 0.985421 17.4528 0.736816 16.5036 0.736816C15.577 0.736816 14.6504 0.962821 13.8368 1.43743L2.67215 7.78816C1.11272 8.66957 0.412109 9.8674 0.412109 11.585V41.9826C0.412109 43.9037 1.56473 45.0337 3.48577 45.0337ZM14.7634 34.2985L5.47461 39.4062C5.31641 39.474 5.1808 39.5418 5.0678 39.5418C4.7966 39.5418 4.66099 39.3384 4.66099 39.022V12.7603C4.66099 12.1274 4.887 11.7206 5.47461 11.3816L14.0176 6.43213C14.2662 6.27393 14.4922 6.16092 14.7634 6.02532V34.2985ZM19.0575 34.4115V6.56773C19.2835 6.68073 19.5321 6.81634 19.7581 6.95194L29.2277 12.6699V40.1068C28.9339 39.9486 28.6401 39.7904 28.3237 39.6096L19.0575 34.4115ZM33.5444 40.4232V12.2404L42.8331 7.17794C42.9461 7.11014 43.0818 7.06494 43.1948 7.06494C43.466 7.06494 43.6468 7.26835 43.6468 7.56215V33.6883C43.6468 34.3437 43.4208 34.7505 42.8105 35.0895L34.584 39.8582C34.245 40.0616 33.8834 40.265 33.5444 40.4232Z" fill="#1A1A1A"/>
</svg>
