<svg width="54" height="54" viewBox="0 0 54 54" fill="none" xmlns="http://www.w3.org/2000/svg">
<path d="M44.0358 43.8879C34.7502 53.2074 19.6952 53.2074 10.4096 43.8879M44.0358 43.8879C53.3214 34.5685 53.3214 19.4586 44.0358 10.1392M44.0358 43.8879L10.4096 10.1392M10.4096 43.8879C1.12395 34.5685 1.12395 19.4586 10.4096 10.1392M10.4096 43.8879L44.0358 10.1392M10.4096 10.1392C19.6952 0.819698 34.7502 0.819698 44.0358 10.1392M50.8257 26.04C44.3735 25.737 37.8217 28.0582 32.8944 33.0034C27.9672 37.9486 25.6545 44.5243 25.9564 51M27.8693 3C28.1712 9.47575 25.8585 16.0514 20.9313 20.9966C16.004 25.9418 9.45223 28.263 3 27.96" stroke="#1A1A1A" stroke-width="5"/>
</svg>
