<svg width="70" height="33" viewBox="0 0 70 33" fill="none" xmlns="http://www.w3.org/2000/svg">
<path fill-rule="evenodd" clip-rule="evenodd" d="M12.031 16.9933C14.5245 17.1365 16.9797 16.9972 19.261 16.8665C25.1023 16.5317 29.8236 16.2644 33.7057 18.6137C34.5014 19.0952 35.4987 19.0952 36.2944 18.6137C40.1765 16.2644 44.8978 16.5317 50.7391 16.8665C53.0204 16.9972 55.4756 17.1365 57.969 16.9933C56.2835 18.3843 54.4287 19.7833 52.4586 21.0879C46.8903 24.7752 40.7137 27.4998 35 27.4998C29.2864 27.4998 23.1098 24.7752 17.5415 21.0879C15.5714 19.7833 13.7165 18.3843 12.031 16.9933ZM59.6421 11.8145C58.9351 11.458 58.2243 11.0895 57.5043 10.7161C55.7664 9.81491 53.9746 8.8858 52.0515 8.03086C46.3545 5.49814 40.9439 4.31278 36.3111 7.16611C35.4842 7.67539 34.4371 7.65971 33.6259 7.12588C29.3907 4.33913 24.0552 5.46588 18.204 8.02987C16.2648 8.87961 14.4465 9.80224 12.6832 10.697C11.9266 11.0809 11.1801 11.4597 10.4385 11.8254C13.0277 12.1705 15.8652 12.0529 18.9749 11.8747C19.1999 11.8618 19.4266 11.8485 19.655 11.8351C24.4891 11.552 30.0651 11.2253 35 13.631C39.935 11.2253 45.511 11.552 50.3451 11.8351C50.5735 11.8485 50.8002 11.8618 51.0252 11.8747C54.1671 12.0547 57.0313 12.173 59.6421 11.8145ZM35.0351 2.16318C28.7525 -1.09544 21.7281 1.02667 16.1972 3.45025C14.1311 4.35562 12.0798 5.39574 10.251 6.32305C9.42461 6.74211 8.64362 7.13812 7.92721 7.48826C6.73151 8.07264 5.69968 8.5398 4.81612 8.85896C3.90382 9.1885 3.32687 9.29315 3.00004 9.29315C2.01941 9.29315 1.12934 9.86646 0.723816 10.7593C0.318295 11.6522 0.472221 12.6997 1.11746 13.4381C3.89935 16.6219 8.84668 21.3271 14.7809 25.2567C20.6685 29.1555 27.8406 32.4998 35 32.4998C42.1595 32.4998 49.3315 29.1555 55.2192 25.2567C61.1534 21.3271 66.1007 16.6219 68.8826 13.4381C69.5279 12.6997 69.6818 11.6522 69.2763 10.7593C68.8707 9.86646 67.9807 9.29315 67 9.29315C66.6769 9.29315 66.1137 9.19044 65.226 8.8643C64.3644 8.54777 63.3603 8.08361 62.1928 7.50034C61.5095 7.15894 60.7653 6.77328 59.9771 6.36481C58.1751 5.43099 56.143 4.37796 54.0827 3.46201C48.56 1.00679 41.5804 -1.07043 35.0351 2.16318Z" fill="#1A1A1A"/>
</svg>
