<svg width="26" height="32" viewBox="0 0 26 32" fill="none" xmlns="http://www.w3.org/2000/svg">
<path d="M0.268555 18.4208C0.268555 23.9051 3.28195 26.0597 11.9304 30.7907C12.3221 31.0017 12.7289 31.1071 12.9851 31.1071C13.2563 31.1071 13.6631 31.0017 14.0548 30.7907C22.7033 26.0748 25.7167 23.9051 25.7167 18.4208V7.01507C25.7167 5.23717 25.0236 4.60435 23.5319 3.97154C21.8595 3.26339 16.2094 1.27455 14.552 0.732143C14.0699 0.566406 13.4973 0.460938 12.9851 0.460938C12.4879 0.460938 11.9153 0.59654 11.4181 0.732143C9.77581 1.18415 4.1257 3.27846 2.45326 3.97154C0.961635 4.58929 0.268555 5.23717 0.268555 7.01507V18.4208ZM3.08608 17.8482V15.4074H12.9851V3.29353C13.2111 3.29353 13.4371 3.33873 13.7686 3.45926C15.8026 4.25781 20.0967 5.77958 22.3567 6.59319C22.7786 6.74386 22.8841 6.96987 22.8841 7.49721V15.4074H12.9851V27.9431C12.7741 27.9431 12.5632 27.8677 12.1263 27.5965C5.22559 23.4079 3.08608 22.2628 3.08608 17.8482Z" fill="#3162E8"/>
</svg>
