<svg width="32" height="32" viewBox="0 0 32 32" fill="none" xmlns="http://www.w3.org/2000/svg">
<path d="M15.9845 31.9866C24.5275 31.9866 31.5788 24.9353 31.5788 16.4074C31.5788 7.87946 24.5124 0.828125 15.9694 0.828125C7.44155 0.828125 0.405273 7.87946 0.405273 16.4074C0.405273 24.9353 7.45661 31.9866 15.9845 31.9866ZM15.9845 28.8828C9.06878 28.8828 3.5392 23.3231 3.5392 16.4074C3.5392 9.49163 9.06878 3.94699 15.9694 3.94699C22.8852 3.94699 28.4449 9.49163 28.46 16.4074C28.475 23.3231 22.9003 28.8828 15.9845 28.8828ZM11.0426 22.7355C11.4343 22.7355 11.7808 22.5999 12.037 22.3287L15.9845 18.3811L19.9321 22.3287C20.1882 22.5848 20.5197 22.7355 20.9265 22.7355C21.6949 22.7355 22.2976 22.1328 22.2976 21.3644C22.2976 20.9877 22.1469 20.6562 21.8908 20.4001L17.9282 16.4375L21.8908 12.4598C22.177 12.1735 22.3126 11.8722 22.3126 11.5106C22.3126 10.7422 21.71 10.1395 20.9415 10.1395C20.5649 10.1395 20.2485 10.26 19.9622 10.5463L15.9845 14.5089L12.0068 10.5614C11.7507 10.2902 11.4343 10.1546 11.0426 10.1546C10.2741 10.1546 9.67146 10.7422 9.67146 11.5106C9.67146 11.8873 9.82213 12.2188 10.0933 12.4749L14.0409 16.4375L10.0933 20.4152C9.82213 20.6562 9.67146 21.0028 9.67146 21.3644C9.67146 22.1328 10.2741 22.7355 11.0426 22.7355Z" fill="#3162E8"/>
</svg>
