<svg width="32" height="29" viewBox="0 0 32 29" fill="none" xmlns="http://www.w3.org/2000/svg">
<path d="M0.737305 10.1737C0.737305 16.6073 6.14634 22.9655 14.5537 28.3896C15.0208 28.691 15.5933 28.9923 15.9851 28.9923C16.3768 28.9923 16.9494 28.691 17.4164 28.3896C25.8389 22.9655 31.2328 16.6073 31.2328 10.1737C31.2328 4.61398 27.3908 0.756836 22.4639 0.756836C19.5861 0.756836 17.3411 2.06766 15.9851 4.0565C14.6592 2.08273 12.3991 0.756836 9.52134 0.756836C4.57938 0.756836 0.737305 4.61398 0.737305 10.1737ZM3.8411 10.1586C3.8411 6.36175 6.34222 3.7853 9.70215 3.7853C12.4142 3.7853 13.936 5.4276 14.8852 6.85896C15.3071 7.4767 15.5933 7.67257 15.9851 7.67257C16.3919 7.67257 16.648 7.46164 17.085 6.85896C18.1095 5.45773 19.571 3.7853 22.268 3.7853C25.643 3.7853 28.1441 6.36175 28.1441 10.1586C28.1441 15.4622 22.6296 21.3383 16.2713 25.5571C16.1357 25.6475 16.0453 25.7077 15.9851 25.7077C15.9248 25.7077 15.8344 25.6475 15.7139 25.5571C9.35561 21.3383 3.8411 15.4622 3.8411 10.1586Z" fill="#3162E8"/>
</svg>
