<svg width="32" height="32" viewBox="0 0 32 32" fill="none" xmlns="http://www.w3.org/2000/svg">
<path fill-rule="evenodd" clip-rule="evenodd" d="M13.881 0.72697C15.1331 -0.225397 16.8667 -0.225395 18.1188 0.72697L19.5953 1.85002C19.6996 1.92941 19.831 1.96462 19.9611 1.94805L21.8013 1.7137C23.3618 1.51497 24.8632 2.38179 25.4714 3.8326L26.1885 5.54343C26.2392 5.66438 26.3354 5.76057 26.4563 5.81126L28.1672 6.52841C29.618 7.13656 30.4848 8.63793 30.2861 10.1984L30.0517 12.0386C30.0351 12.1687 30.0704 12.3001 30.1497 12.4045L31.2728 13.881C32.2252 15.1331 32.2252 16.8667 31.2728 18.1188L30.1497 19.5953C30.0704 19.6996 30.0351 19.831 30.0517 19.9611L30.2861 21.8013C30.4848 23.3618 29.618 24.8632 28.1672 25.4714L26.4563 26.1885C26.3354 26.2392 26.2392 26.3354 26.1885 26.4563L25.4714 28.1672C24.8632 29.618 23.3618 30.4848 21.8013 30.2861L19.9611 30.0517C19.831 30.0351 19.6996 30.0704 19.5953 30.1497L18.1188 31.2728C16.8667 32.2252 15.1331 32.2252 13.881 31.2728L12.4045 30.1497C12.3001 30.0704 12.1687 30.0351 12.0386 30.0517L10.1985 30.2861C8.63793 30.4848 7.13656 29.618 6.52841 28.1672L5.81126 26.4563C5.76057 26.3354 5.66438 26.2392 5.54343 26.1885L3.8326 25.4714C2.38179 24.8632 1.51497 23.3618 1.7137 21.8013L1.94805 19.9611C1.96462 19.831 1.92941 19.6996 1.85002 19.5953L0.72697 18.1188C-0.225397 16.8667 -0.225395 15.1331 0.72697 13.881L1.85002 12.4045C1.92941 12.3001 1.96462 12.1687 1.94805 12.0386L1.7137 10.1984C1.51497 8.63793 2.38179 7.13656 3.8326 6.52841L5.54343 5.81126C5.66438 5.76057 5.76057 5.66438 5.81126 5.54343L6.52841 3.8326C7.13656 2.38179 8.63793 1.51497 10.1984 1.7137L12.0386 1.94805C12.1687 1.96462 12.3001 1.92941 12.4045 1.85002L13.881 0.72697ZM16.3026 3.11473C16.1237 2.97868 15.8761 2.97868 15.6972 3.11473L14.2207 4.23779C13.49 4.79354 12.5703 5.03999 11.6596 4.92402L9.81946 4.68967C9.59653 4.66128 9.38204 4.78511 9.29516 4.99237L8.57802 6.7032C8.22313 7.54983 7.54982 8.22313 6.7032 8.57802L4.99237 9.29516C4.78511 9.38204 4.66128 9.59652 4.68967 9.81946L4.92402 11.6596C5.03999 12.5703 4.79354 13.49 4.23779 14.2207L3.11473 15.6972C2.97868 15.8761 2.97868 16.1237 3.11473 16.3026L4.23779 17.7791C4.79354 18.5097 5.03999 19.4295 4.92402 20.3401L4.68967 22.1803C4.66128 22.4032 4.78511 22.6177 4.99237 22.7046L6.7032 23.4217C7.54983 23.7766 8.22313 24.4499 8.57802 25.2966L9.29516 27.0074C9.38204 27.2147 9.59652 27.3385 9.81946 27.3101L11.6596 27.0758C12.5703 26.9598 13.49 27.2062 14.2207 27.762L15.6972 28.885C15.8761 29.0211 16.1237 29.0211 16.3026 28.885L17.7791 27.762C18.5097 27.2062 19.4295 26.9598 20.3401 27.0758L22.1803 27.3101C22.4032 27.3385 22.6177 27.2147 22.7046 27.0074L23.4217 25.2966C23.7766 24.4499 24.4499 23.7766 25.2966 23.4217L27.0074 22.7046C27.2147 22.6177 27.3385 22.4032 27.3101 22.1803L27.0758 20.3401C26.9598 19.4295 27.2062 18.5097 27.762 17.7791L28.885 16.3026C29.0211 16.1237 29.0211 15.8761 28.885 15.6972L27.762 14.2207C27.2062 13.49 26.9598 12.5703 27.0758 11.6596L27.3101 9.81946C27.3385 9.59653 27.2147 9.38204 27.0074 9.29516L25.2966 8.57802C24.4499 8.22313 23.7766 7.54982 23.4217 6.7032L22.7046 4.99237C22.6177 4.78511 22.4032 4.66128 22.1803 4.68967L20.3401 4.92402C19.4295 5.03999 18.5097 4.79354 17.7791 4.23779L16.3026 3.11473Z" fill="#3162E8"/>
<path fill-rule="evenodd" clip-rule="evenodd" d="M23.0605 13.0605L14.9999 21.1212L9.93923 16.0605L12.0605 13.9392L14.9999 16.8786L20.9392 10.9392L23.0605 13.0605Z" fill="#3162E8"/>
</svg>
