<svg width="38" height="32" viewBox="0 0 38 32" fill="none" xmlns="http://www.w3.org/2000/svg">
<path d="M0.662109 23.5984C0.662109 26.8228 2.36468 28.5103 5.61914 28.5103H21.334C20.7765 27.6062 20.3848 26.5817 20.204 25.5119H5.60407C4.35352 25.5119 3.66044 24.864 3.66044 23.5382V9.67655C3.66044 8.35066 4.35352 7.70278 5.60407 7.70278H26.3814C27.632 7.70278 28.3251 8.35066 28.3251 9.67655V13.7145C28.8524 13.6241 29.3496 13.5789 29.8468 13.5789C30.344 13.5789 30.8412 13.6241 31.3384 13.6994V5.26193C31.3384 2.0376 29.6359 0.350098 26.3664 0.350098H5.61914C2.36468 0.350098 0.662109 2.02253 0.662109 5.26193V23.5984ZM13.0924 12.9009H13.9813C14.5237 12.9009 14.7045 12.7351 14.7045 12.2078V11.3188C14.7045 10.7764 14.5237 10.6107 13.9813 10.6107H13.0924C12.5499 10.6107 12.3691 10.7764 12.3691 11.3188V12.2078C12.3691 12.7351 12.5499 12.9009 13.0924 12.9009ZM18.0193 12.9009H18.9082C19.4355 12.9009 19.6164 12.7351 19.6164 12.2078V11.3188C19.6164 10.7764 19.4355 10.6107 18.9082 10.6107H18.0193C17.4768 10.6107 17.296 10.7764 17.296 11.3188V12.2078C17.296 12.7351 17.4768 12.9009 18.0193 12.9009ZM22.9311 12.9009H23.82C24.3624 12.9009 24.5432 12.7351 24.5432 12.2078V11.3188C24.5432 10.7764 24.3624 10.6107 23.82 10.6107H22.9311C22.4037 10.6107 22.2229 10.7764 22.2229 11.3188V12.2078C22.2229 12.7351 22.4037 12.9009 22.9311 12.9009ZM8.18052 17.7524H9.05441C9.59682 17.7524 9.77762 17.5867 9.77762 17.0443V16.1553C9.77762 15.628 9.59682 15.4623 9.05441 15.4623H8.18052C7.63811 15.4623 7.45731 15.628 7.45731 16.1553V17.0443C7.45731 17.5867 7.63811 17.7524 8.18052 17.7524ZM13.0924 17.7524H13.9813C14.5237 17.7524 14.7045 17.5867 14.7045 17.0443V16.1553C14.7045 15.628 14.5237 15.4623 13.9813 15.4623H13.0924C12.5499 15.4623 12.3691 15.628 12.3691 16.1553V17.0443C12.3691 17.5867 12.5499 17.7524 13.0924 17.7524ZM18.0193 17.7524H18.9082C19.4355 17.7524 19.6164 17.5867 19.6164 17.0443V16.1553C19.6164 15.628 19.4355 15.4623 18.9082 15.4623H18.0193C17.4768 15.4623 17.296 15.628 17.296 16.1553V17.0443C17.296 17.5867 17.4768 17.7524 18.0193 17.7524ZM29.8468 31.2524C34.0656 31.2524 37.6214 27.7268 37.6214 23.4779C37.6214 19.229 34.1108 15.7184 29.8468 15.7184C25.5979 15.7184 22.0873 19.229 22.0873 23.4779C22.0873 27.7418 25.5979 31.2524 29.8468 31.2524ZM26.2609 24.7736C25.6582 24.7736 25.1911 24.2915 25.1911 23.7039C25.1911 23.1313 25.6733 22.6643 26.2609 22.6643H28.8825V19.1386C28.8825 18.551 29.3496 18.099 29.9372 18.099C30.5248 18.099 31.007 18.551 31.007 19.1386V23.7039C31.007 24.3066 30.5399 24.7736 29.9372 24.7736H26.2609ZM8.18052 22.5889H9.05441C9.59682 22.5889 9.77762 22.4232 9.77762 21.8959V21.0069C9.77762 20.4645 9.59682 20.2988 9.05441 20.2988H8.18052C7.63811 20.2988 7.45731 20.4645 7.45731 21.0069V21.8959C7.45731 22.4232 7.63811 22.5889 8.18052 22.5889ZM13.0924 22.5889H13.9813C14.5237 22.5889 14.7045 22.4232 14.7045 21.8959V21.0069C14.7045 20.4645 14.5237 20.2988 13.9813 20.2988H13.0924C12.5499 20.2988 12.3691 20.4645 12.3691 21.0069V21.8959C12.3691 22.4232 12.5499 22.5889 13.0924 22.5889ZM18.0193 22.5889H18.9082C19.4355 22.5889 19.6164 22.4232 19.6164 21.8959V21.0069C19.6164 20.4645 19.4355 20.2988 18.9082 20.2988H18.0193C17.4768 20.2988 17.296 20.4645 17.296 21.0069V21.8959C17.296 22.4232 17.4768 22.5889 18.0193 22.5889Z" fill="#3162E8"/>
</svg>
