<svg width="30" height="31" viewBox="0 0 30 31" fill="none" xmlns="http://www.w3.org/2000/svg">
<path d="M1.54492 10.5407C2.50921 10.5407 3.02148 10.0134 3.02148 9.04907V5.64394C3.02148 4.18244 3.7899 3.45923 5.19113 3.45923H8.6716C9.63588 3.45923 10.1632 2.93188 10.1632 1.98267C10.1632 1.03345 9.63588 0.506104 8.6716 0.506104H5.01032C1.75586 0.506104 0.0683594 2.17854 0.0683594 5.3878V9.04907C0.0683594 10.0134 0.595703 10.5407 1.54492 10.5407ZM28.4395 10.5407C29.4037 10.5407 29.916 10.0134 29.916 9.04907V5.3878C29.916 2.17854 28.2285 0.506104 24.9741 0.506104H21.3128C20.3485 0.506104 19.8211 1.03345 19.8211 1.98267C19.8211 2.93188 20.3485 3.45923 21.3128 3.45923H24.7932C26.1794 3.45923 26.9629 4.18244 26.9629 5.64394V9.04907C26.9629 10.0134 27.4902 10.5407 28.4395 10.5407ZM7.0745 9.74215C7.0745 10.3298 7.55664 10.8119 8.15932 10.8119H21.8251C22.4277 10.8119 22.9099 10.3298 22.9099 9.74215C22.9099 9.13947 22.4277 8.65733 21.8251 8.65733H8.15932C7.55664 8.65733 7.0745 9.13947 7.0745 9.74215ZM7.0745 15.4073C7.0745 15.9949 7.55664 16.4771 8.15932 16.4771H21.8251C22.4277 16.4771 22.9099 15.9949 22.9099 15.4073C22.9099 14.8047 22.4277 14.3225 21.8251 14.3225H8.15932C7.55664 14.3225 7.0745 14.8047 7.0745 15.4073ZM7.0745 21.0725C7.0745 21.6601 7.55664 22.1423 8.15932 22.1423H17.1392C17.7268 22.1423 18.209 21.6601 18.209 21.0725C18.209 20.4698 17.7268 19.9877 17.1392 19.9877H8.15932C7.55664 19.9877 7.0745 20.4698 7.0745 21.0725ZM5.01032 30.3538H8.6716C9.63588 30.3538 10.1632 29.8264 10.1632 28.8772C10.1632 27.928 9.63588 27.4006 8.6716 27.4006H5.19113C3.7899 27.4006 3.02148 26.6774 3.02148 25.2009V21.7957C3.02148 20.8314 2.49414 20.3041 1.54492 20.3041C0.580636 20.3041 0.0683594 20.8314 0.0683594 21.7957V25.457C0.0683594 28.6813 1.75586 30.3538 5.01032 30.3538ZM21.3128 30.3538H24.9741C28.2285 30.3538 29.916 28.6813 29.916 25.457V21.7957C29.916 20.8314 29.3887 20.3041 28.4395 20.3041C27.4752 20.3041 26.9629 20.8465 26.9629 21.7957V25.2009C26.9629 26.6774 26.1794 27.4006 24.7932 27.4006H21.3128C20.3485 27.4006 19.8211 27.928 19.8211 28.8772C19.8211 29.8264 20.3485 30.3538 21.3128 30.3538Z" fill="#3162E8"/>
</svg>
