<svg width="8" height="21" viewBox="0 0 8 21" fill="none" xmlns="http://www.w3.org/2000/svg">
<path d="M3.50281 19.9234L6.61037 12.3071C6.87027 11.6968 7.10758 11.0979 7.10758 10.5329C7.10758 9.95661 6.87027 9.3577 6.61037 8.75879L3.50281 1.13114C3.2881 0.633929 2.84739 0.294922 2.32758 0.294922C1.48007 0.294922 0.892456 0.916434 0.892456 1.68485C0.892456 2.09166 1.12976 2.63407 1.28796 3.02958L4.33902 10.5329L1.28796 18.0363C1.12976 18.4318 0.892456 18.9629 0.892456 19.381C0.892456 20.1494 1.48007 20.7709 2.32758 20.7709C2.84739 20.7709 3.2881 20.4319 3.50281 19.9234Z" fill="#1A1A1A"/>
</svg>
