<svg width="9" height="8" viewBox="0 0 9 8" fill="none" xmlns="http://www.w3.org/2000/svg">
<path d="M3.89355 7.46191C3.7002 7.74316 3.43652 7.90137 3.11133 7.90137C2.79492 7.90137 2.54004 7.76953 2.30273 7.46191L0.219727 4.93066C0.0791016 4.74609 0 4.55273 0 4.3418C0 3.90234 0.333984 3.55957 0.764648 3.55957C1.02832 3.55957 1.23926 3.65625 1.4502 3.92871L3.08496 6.01172L6.55664 0.439453C6.74121 0.140625 6.97852 0 7.24219 0C7.65527 0 8.04199 0.290039 8.04199 0.720703C8.04199 0.922852 7.93652 1.13379 7.82227 1.31836L3.89355 7.46191Z" fill="#F4F4F4"/>
</svg>
