<svg width="16" height="15" viewBox="0 0 16 15" fill="none" xmlns="http://www.w3.org/2000/svg">
<path d="M2.80942 14.7551H13.183C14.8178 14.7551 15.6691 13.9114 15.6691 12.2992V3.13096C15.6691 1.5188 14.8178 0.675049 13.183 0.675049H2.80942C1.18219 0.675049 0.330902 1.51127 0.330902 3.13096V12.2992C0.330902 13.9114 1.18219 14.7551 2.80942 14.7551ZM2.80188 13.256C2.17661 13.256 1.83007 12.932 1.83007 12.2691V5.33827C1.83007 4.67533 2.17661 4.35139 2.80188 4.35139H13.1906C13.8158 4.35139 14.1624 4.67533 14.1624 5.33827V12.2691C14.1624 12.932 13.8158 13.256 13.1906 13.256H2.80188ZM6.54602 6.95044H6.9905C7.26171 6.95044 7.35211 6.86757 7.35211 6.6039V6.15942C7.35211 5.88822 7.26171 5.80535 6.9905 5.80535H6.54602C6.27482 5.80535 6.18442 5.88822 6.18442 6.15942V6.6039C6.18442 6.86757 6.27482 6.95044 6.54602 6.95044ZM9.00947 6.95044H9.45395C9.71762 6.95044 9.80802 6.86757 9.80802 6.6039V6.15942C9.80802 5.88822 9.71762 5.80535 9.45395 5.80535H9.00947C8.73827 5.80535 8.64787 5.88822 8.64787 6.15942V6.6039C8.64787 6.86757 8.73827 6.95044 9.00947 6.95044ZM11.4654 6.95044H11.9099C12.1811 6.95044 12.2715 6.86757 12.2715 6.6039V6.15942C12.2715 5.88822 12.1811 5.80535 11.9099 5.80535H11.4654C11.2017 5.80535 11.1113 5.88822 11.1113 6.15942V6.6039C11.1113 6.86757 11.2017 6.95044 11.4654 6.95044ZM4.09011 9.37622H4.52705C4.79826 9.37622 4.88866 9.29335 4.88866 9.02215V8.57767C4.88866 8.314 4.79826 8.23113 4.52705 8.23113H4.09011C3.8189 8.23113 3.7285 8.314 3.7285 8.57767V9.02215C3.7285 9.29335 3.8189 9.37622 4.09011 9.37622ZM6.54602 9.37622H6.9905C7.26171 9.37622 7.35211 9.29335 7.35211 9.02215V8.57767C7.35211 8.314 7.26171 8.23113 6.9905 8.23113H6.54602C6.27482 8.23113 6.18442 8.314 6.18442 8.57767V9.02215C6.18442 9.29335 6.27482 9.37622 6.54602 9.37622ZM9.00947 9.37622H9.45395C9.71762 9.37622 9.80802 9.29335 9.80802 9.02215V8.57767C9.80802 8.314 9.71762 8.23113 9.45395 8.23113H9.00947C8.73827 8.23113 8.64787 8.314 8.64787 8.57767V9.02215C8.64787 9.29335 8.73827 9.37622 9.00947 9.37622ZM11.4654 9.37622H11.9099C12.1811 9.37622 12.2715 9.29335 12.2715 9.02215V8.57767C12.2715 8.314 12.1811 8.23113 11.9099 8.23113H11.4654C11.2017 8.23113 11.1113 8.314 11.1113 8.57767V9.02215C11.1113 9.29335 11.2017 9.37622 11.4654 9.37622ZM4.09011 11.7945H4.52705C4.79826 11.7945 4.88866 11.7116 4.88866 11.4479V11.0035C4.88866 10.7322 4.79826 10.6494 4.52705 10.6494H4.09011C3.8189 10.6494 3.7285 10.7322 3.7285 11.0035V11.4479C3.7285 11.7116 3.8189 11.7945 4.09011 11.7945ZM6.54602 11.7945H6.9905C7.26171 11.7945 7.35211 11.7116 7.35211 11.4479V11.0035C7.35211 10.7322 7.26171 10.6494 6.9905 10.6494H6.54602C6.27482 10.6494 6.18442 10.7322 6.18442 11.0035V11.4479C6.18442 11.7116 6.27482 11.7945 6.54602 11.7945ZM9.00947 11.7945H9.45395C9.71762 11.7945 9.80802 11.7116 9.80802 11.4479V11.0035C9.80802 10.7322 9.71762 10.6494 9.45395 10.6494H9.00947C8.73827 10.6494 8.64787 10.7322 8.64787 11.0035V11.4479C8.64787 11.7116 8.73827 11.7945 9.00947 11.7945Z" fill="#1C1C1E"/>
</svg>
