<svg width="18" height="17" viewBox="0 0 18 17" fill="none" xmlns="http://www.w3.org/2000/svg">
<path d="M8.64593 11.83L9.79855 10.6623C8.9096 10.587 8.26925 10.2931 7.80971 9.8336C6.53655 8.56044 6.53655 6.75994 7.80218 5.50185L10.3033 2.9932C11.5765 1.72758 13.3694 1.72004 14.6426 2.9932C15.9233 4.27389 15.9082 6.06686 14.6501 7.33249L13.3694 8.60564C13.6105 9.16312 13.6934 9.84114 13.5578 10.4287L15.7123 8.2817C17.5656 6.436 17.5731 3.79928 15.7048 1.93098C13.829 0.0551424 11.2073 0.0702093 9.35408 1.92345L6.73242 4.5451C4.87919 6.39833 4.87165 9.02752 6.73996 10.8958C7.1769 11.3403 7.77958 11.6718 8.64593 11.83ZM9.34654 5.46418L8.19392 6.63187C9.08287 6.71474 9.72322 7.00101 10.1828 7.46056C11.4635 8.73371 11.4559 10.5342 10.1903 11.7998L7.68918 14.301C6.41602 15.5741 4.62305 15.5741 3.35742 14.301C2.07673 13.0203 2.08426 11.2348 3.34989 9.9692L4.62305 8.68851C4.38198 8.13857 4.30664 7.46055 4.43471 6.86541L2.28014 9.01999C0.426899 10.8657 0.419365 13.4949 2.28767 15.3632C4.16351 17.239 6.78516 17.2239 8.63839 15.3782L11.26 12.7491C13.1133 10.8958 13.1208 8.26664 11.2525 6.39833C10.8156 5.96139 10.2204 5.62992 9.34654 5.46418Z" fill="#1A1A1A" fill-opacity="0.2"/>
</svg>
