<svg width="172" height="20" viewBox="0 0 172 20" fill="none" xmlns="http://www.w3.org/2000/svg">
<path fill-rule="evenodd" clip-rule="evenodd" d="M21.0496 19.5143H29.9623L20.0421 0.412884H9.7832L0 19.5143H8.88138L10.3053 16.3083H19.6257L21.0496 19.5143ZM14.9902 5.83661L17.3958 11.245H12.5639L14.9902 5.83661Z" fill="#3162E8"/>
<path fill-rule="evenodd" clip-rule="evenodd" d="M45.0501 0.412884H30.9215V19.5143H45.0501C49.6149 19.5143 52.8781 18.4622 55.0069 16.7084C57.144 14.9475 58.0655 12.5386 58.0655 9.97571C58.0655 7.32006 57.0672 4.90506 54.8944 3.16256C52.7318 1.42819 49.472 0.412884 45.0501 0.412884ZM39.0112 5.91341H43.7297C45.9429 5.91341 47.4827 6.25138 48.4593 6.90014C49.3945 7.52137 49.8981 8.48654 49.8981 9.97571C49.8981 11.4511 49.3958 12.4038 48.4646 13.0165C47.4909 13.6573 45.9567 13.9894 43.7556 13.9894H39.0112V5.91341Z" fill="#3162E8"/>
<path d="M60.0213 19.5143H67.5415V9.46927L73.0791 16.9398H79.104L84.6417 9.46928V19.5143H92.1619V0.412884H83.3247L76.1037 10.538L68.8314 0.412884H60.0213V19.5143Z" fill="#1A1A1A"/>
<path fill-rule="evenodd" clip-rule="evenodd" d="M108.532 20C112.947 20 116.542 19.1512 119.048 17.4598C121.58 15.7509 122.946 13.2184 122.946 10V9.97571C122.946 6.74551 121.581 4.2182 119.047 2.51816C116.54 0.836067 112.945 0 108.532 0C104.119 0 100.524 0.836067 98.0175 2.51816C95.484 4.2182 94.1189 6.74551 94.1189 9.97571V10C94.1189 13.2184 95.4841 15.7509 98.0163 17.4598C100.523 19.1512 104.118 20 108.532 20ZM108.532 14.4509C106.577 14.4509 105.007 14.0291 103.942 13.2785C102.896 12.5422 102.286 11.4573 102.286 10V9.97571C102.286 8.50535 102.897 7.42128 103.941 6.68864C105.006 5.94116 106.575 5.52482 108.532 5.52482C110.483 5.52482 112.053 5.96277 113.121 6.72287C114.171 7.47044 114.778 8.55774 114.778 9.97571V10C114.778 11.4049 114.172 12.493 113.12 13.2443C112.051 14.0076 110.481 14.4509 108.532 14.4509Z" fill="#1A1A1A"/>
<path d="M132.556 6.61065C132.964 6.83271 133.849 7.07004 135.737 7.23995C140.944 7.7028 143.93 8.5367 145.62 9.63598C146.48 10.196 147.011 10.8286 147.318 11.5121C147.621 12.1872 147.69 12.8759 147.69 13.5216C147.69 14.6117 147.427 15.5846 146.886 16.4249C146.347 17.2644 145.549 17.9425 144.529 18.471C142.505 19.5191 139.562 20 135.814 20C131.606 20 128.585 19.212 126.58 17.9049C124.556 16.5851 123.608 14.7613 123.524 12.8146L123.5 12.265H131.244L131.275 12.7616C131.298 13.1089 131.378 13.382 131.514 13.6019C131.648 13.8184 131.853 14.0129 132.174 14.1802C132.843 14.528 133.983 14.7423 135.866 14.7423C137.467 14.7423 138.475 14.5955 139.064 14.3666C139.352 14.255 139.506 14.1367 139.588 14.0363C139.664 13.9435 139.704 13.8367 139.704 13.6917C139.704 13.5127 139.681 13.4613 139.661 13.4327C139.64 13.4027 139.564 13.3156 139.266 13.2049C138.648 12.9751 137.414 12.7611 134.955 12.5169C130.598 12.1262 127.922 11.3574 126.333 10.2334C124.684 9.06743 124.274 7.57384 124.274 5.99261C124.274 4.42748 124.982 2.8932 126.767 1.77401C128.52 0.674289 131.27 0 135.322 0C139.293 0 142.155 0.720001 144.082 1.9904C146.031 3.27523 146.964 5.08398 147.144 7.11455L147.195 7.68638H139.74L139.66 7.24679C139.562 6.70413 139.325 6.23501 138.782 5.88379C138.216 5.51744 137.247 5.23337 135.581 5.23337C134.148 5.23337 133.272 5.36817 132.772 5.56766C132.53 5.66415 132.409 5.76322 132.348 5.84068C132.291 5.91158 132.26 5.9947 132.26 6.11405C132.26 6.26552 132.274 6.33773 132.3 6.39064C132.32 6.43203 132.372 6.51059 132.556 6.61065Z" fill="#1A1A1A"/>
<path d="M155.781 19.5143H163.871V5.91341H172V0.412884H147.626V5.91341H155.781V19.5143Z" fill="#1A1A1A"/>
</svg>
