<svg width="15" height="12" viewBox="0 0 15 12" fill="none" xmlns="http://www.w3.org/2000/svg">
<path d="M0.505711 6.04029C1.99642 5.28214 3.66045 4.64934 5.21524 4.01333C7.89008 2.9716 10.5755 1.94792 13.2881 0.994882C13.8159 0.832504 14.7641 0.673727 14.8571 1.39586C14.8062 2.41807 14.5967 3.43429 14.4531 4.45051C14.0885 6.68528 13.667 8.9124 13.256 11.1398C13.1144 11.8818 12.1078 12.2658 11.4637 11.791C9.91583 10.8257 8.35604 9.86965 6.82793 8.88188C6.32736 8.41225 6.79155 7.7378 7.2386 7.40243C8.51348 6.24236 9.86551 5.25675 11.0738 4.03673C11.3997 3.31005 10.4367 3.92247 10.119 4.11014C8.37372 5.22066 6.67111 6.39898 4.831 7.37497C3.89107 7.85271 2.79557 7.44445 1.85606 7.17788C1.0137 6.85584 -0.220622 6.5313 0.505711 6.04029Z" fill="#1C1C1E"/>
</svg>
