<svg width="16" height="16" viewBox="0 0 16 16" fill="none" xmlns="http://www.w3.org/2000/svg">
<path d="M8 9.20586C8.16878 9.20586 8.3173 9.15073 8.48608 8.98536L10.7477 6.75969C10.8624 6.64255 10.93 6.51852 10.93 6.34625C10.93 6.02239 10.6734 5.795 10.3629 5.795C10.2076 5.795 10.0523 5.85702 9.9443 5.98105L8.99916 7.00775L8.58059 7.51766L8.6346 6.49096V0.633936C8.6346 0.289406 8.35105 0 8 0C7.6557 0 7.37215 0.289406 7.37215 0.633936V6.49096L7.41941 7.51766L7.00084 7.00775L6.06245 5.98105C5.95443 5.85702 5.7924 5.795 5.63713 5.795C5.32658 5.795 5.07679 6.02239 5.07679 6.34625C5.07679 6.51852 5.13755 6.64255 5.25232 6.75969L7.52067 8.98536C7.6827 9.15073 7.83797 9.20586 8 9.20586ZM2.2211 16H13.7722C15.2371 16 16 15.2283 16 13.7537V9.80534C16 9.10939 15.9122 8.76486 15.6017 8.33075L13.3603 5.23687C12.5772 4.14815 12.0304 3.62446 10.7949 3.62446H9.88354V4.75452H10.8624C11.335 4.75452 11.8076 5.15418 12.1046 5.56072L14.4 8.82687C14.6295 9.13695 14.5485 9.26787 14.2042 9.26787H10.1738C9.78228 9.26787 9.60675 9.5435 9.60675 9.83979V9.86736C9.60675 10.6736 8.9924 11.5418 8 11.5418C7.00759 11.5418 6.39325 10.6736 6.39325 9.86736V9.83979C6.39325 9.5435 6.21772 9.26787 5.82616 9.26787H1.79578C1.44473 9.26787 1.37722 9.11628 1.59325 8.82687L3.88861 5.56072C4.1924 5.15418 4.66498 4.75452 5.13755 4.75452H6.11646V3.62446H5.19831C3.96287 3.62446 3.42278 4.14815 2.63966 5.23687L0.391561 8.33075C0.0810127 8.76486 0 9.10939 0 9.80534V13.7537C0 15.2283 0.762869 16 2.2211 16Z" fill="#1C1C1E"/>
</svg>
