<svg width="14" height="14" viewBox="0 0 14 14" fill="none" xmlns="http://www.w3.org/2000/svg">
<path d="M1.18587 10.8693C0.433688 9.75799 0 8.42304 0 7C0 3.17135 3.17135 0 7.00678 0C8.42982 0 9.75121 0.433688 10.8625 1.17909L1.18587 10.8693ZM1.10455 13.668C0.887706 13.878 0.54211 13.8712 0.338819 13.6612C0.135528 13.4511 0.128751 13.1123 0.338819 12.9022L12.9022 0.332043C13.1123 0.121975 13.4579 0.121975 13.6747 0.332043C13.878 0.54211 13.878 0.894482 13.6747 1.09777L1.10455 13.668ZM12.8141 3.14424C13.5663 4.24879 14 5.57696 14 7C14 10.8354 10.8287 14 7 14C5.57696 14 4.25557 13.5663 3.15102 12.8209L12.8141 3.14424Z" fill="#1C1C1E"/>
</svg>
