<svg width="16" height="17" viewBox="0 0 16 17" fill="none" xmlns="http://www.w3.org/2000/svg">
<path d="M7.99247 0.506727C12.264 0.506727 15.7896 4.0324 15.7896 8.29635C15.7896 12.5603 12.2564 16.086 7.98494 16.086C3.72099 16.086 0.20285 12.5603 0.20285 8.29635C0.20285 4.0324 3.72852 0.506727 7.99247 0.506727ZM7.99247 7.00812C7.548 7.00812 7.29186 7.25673 7.27679 7.70874L7.17132 11.4679C7.15625 11.935 7.48773 12.259 7.98494 12.259C8.46708 12.259 8.82115 11.9275 8.80609 11.4604L8.68555 7.70874C8.67048 7.24919 8.42188 7.00812 7.99247 7.00812ZM7.99247 4.40154C7.48019 4.40154 7.05832 4.77068 7.05832 5.26789C7.05832 5.7651 7.47266 6.13424 7.99247 6.13424C8.50475 6.13424 8.91909 5.7651 8.91909 5.26789C8.91909 4.76314 8.49721 4.40154 7.99247 4.40154Z" fill="#1C1C1E"/>
</svg>
