<svg width="16" height="17" viewBox="0 0 16 17" fill="none" xmlns="http://www.w3.org/2000/svg">
<path d="M7.99997 16.4933C12.2639 16.4933 15.7896 12.9676 15.7896 8.70368C15.7896 4.43973 12.2715 0.914062 7.99997 0.914062C3.73602 0.914062 0.20282 4.43973 0.20282 8.70368C0.20282 12.9676 3.72849 16.4933 7.99997 16.4933ZM7.99997 14.9414C4.54211 14.9414 1.75472 12.1616 1.76225 8.70368C1.76978 5.24581 4.54211 2.47349 7.99997 2.47349C11.4578 2.47349 14.2226 5.24581 14.2226 8.70368C14.2226 12.1616 11.4503 14.9414 7.99997 14.9414ZM5.43106 7.04632L7.5781 9.19336C7.81917 9.44196 8.19584 9.44196 8.43692 9.19336L11.7592 5.87863C11.9927 5.63756 12.0003 5.26088 11.7516 5.02734C11.503 4.79381 11.1414 4.78627 10.9004 5.02734L7.99997 7.9202L6.28234 6.19503C6.04127 5.95396 5.67213 5.95396 5.43106 6.19503C5.18999 6.4361 5.18999 6.80525 5.43106 7.04632ZM0.248021 13.0053V15.1975C0.248021 16.1844 0.730164 16.659 1.73212 16.659H4.07503C2.41766 15.8454 1.15204 14.6325 0.248021 13.0053ZM15.7444 13.0053C14.8404 14.6325 13.5748 15.8454 11.9174 16.659H14.2603C15.2623 16.659 15.7444 16.1844 15.7444 15.1975V13.0053Z" fill="#1A1A1A"/>
</svg>
