<svg width="16" height="17" viewBox="0 0 16 17" fill="none" xmlns="http://www.w3.org/2000/svg">
<path d="M10.5162 16.7116H14.8781C15.2999 16.7116 15.5184 16.5157 15.5184 16.1767C15.5184 15.8301 15.2999 15.6418 14.8781 15.6418H13.3186V1.71994H14.8781C15.2999 1.71994 15.5184 1.5316 15.5184 1.17753C15.5184 0.838518 15.2999 0.657715 14.8781 0.657715H10.5162C10.0943 0.657715 9.87584 0.838518 9.87584 1.17753C9.87584 1.5316 10.0943 1.71994 10.5162 1.71994H12.0907V15.6418H10.5162C10.0943 15.6418 9.87584 15.8301 9.87584 16.1767C9.87584 16.5157 10.0943 16.7116 10.5162 16.7116ZM5.00168 14.3461C5.54409 14.3461 5.89816 14.007 5.89816 13.4646V4.77853H8.74582C9.20536 4.77853 9.53683 4.47719 9.53683 4.01011C9.53683 3.55057 9.20536 3.24923 8.74582 3.24923H1.26507C0.805526 3.24923 0.474052 3.55057 0.474052 4.01011C0.474052 4.47719 0.805526 4.77853 1.26507 4.77853H4.11272V13.4646C4.11272 14.007 4.45926 14.3461 5.00168 14.3461Z" fill="#1A1A1A" fill-opacity="0.2"/>
</svg>
