<svg width="16" height="17" viewBox="0 0 16 17" fill="none" xmlns="http://www.w3.org/2000/svg">
<path d="M7.9925 16.4933C12.264 16.4933 15.7897 12.9676 15.7897 8.70368C15.7897 4.43973 12.2565 0.914062 7.98497 0.914062C3.72102 0.914062 0.202881 4.43973 0.202881 8.70368C0.202881 12.9676 3.72855 16.4933 7.9925 16.4933ZM7.9925 14.9414C4.53463 14.9414 1.76985 12.1616 1.76985 8.70368C1.76985 5.24581 4.53463 2.47349 7.98497 2.47349C11.4428 2.47349 14.2227 5.24581 14.2302 8.70368C14.2378 12.1616 11.4504 14.9414 7.9925 14.9414ZM10.3354 10.685C10.7196 10.685 10.9607 10.3987 10.9607 9.99191V6.48884C10.9607 5.96903 10.6669 5.72796 10.1923 5.72796H6.66661C6.2598 5.72796 5.99613 5.97656 5.99613 6.35324C5.99613 6.72991 6.2598 6.97852 6.67414 6.97852H7.9473L8.96432 6.85798L7.8569 7.86747L5.22018 10.5042C5.09211 10.6323 5.00924 10.8131 5.00924 10.9939C5.00924 11.3931 5.28798 11.6568 5.67972 11.6568C5.88313 11.6568 6.04886 11.589 6.192 11.4459L8.81365 8.82422L9.82314 7.72433L9.71014 8.80162V9.99944C9.71014 10.4138 9.95874 10.685 10.3354 10.685Z" fill="white"/>
</svg>
