<svg width="24" height="25" viewBox="0 0 24 25" fill="none" xmlns="http://www.w3.org/2000/svg">
<path d="M11.9888 24.24C18.396 24.24 23.6845 18.9515 23.6845 12.5555C23.6845 6.1596 18.3847 0.871094 11.9775 0.871094C5.58152 0.871094 0.304321 6.1596 0.304321 12.5555C0.304321 18.9515 5.59283 24.24 11.9888 24.24ZM11.9888 21.9121C6.80195 21.9121 2.65477 17.7423 2.65477 12.5555C2.65477 7.36872 6.80195 3.21024 11.9775 3.21024C17.1643 3.21024 21.334 7.36872 21.3453 12.5555C21.3566 17.7423 17.1756 21.9121 11.9888 21.9121ZM13.1866 16.1716L17.5146 11.5724C17.8875 11.1656 17.8988 10.5667 17.5485 10.2164C17.153 9.83217 16.5427 9.82087 16.1811 10.2051L11.9888 14.6574L7.79637 10.2051C7.43476 9.82087 6.81325 9.82087 6.42904 10.2164C6.09004 10.578 6.09004 11.1656 6.46294 11.5611L10.7909 16.1603C11.5141 16.94 12.4634 16.94 13.1866 16.1716Z" fill="#1C1C1E"/>
</svg>
