<svg width="16" height="18" viewBox="0 0 16 18" fill="none" xmlns="http://www.w3.org/2000/svg">
<path d="M4.54213 17.5157H11.4654C12.6256 17.5157 13.3714 16.8151 13.4316 15.6549L13.9364 4.80671H14.7651C15.1493 4.80671 15.4431 4.50537 15.4431 4.1287C15.4431 3.75202 15.1417 3.46575 14.7651 3.46575H11.4202V2.33573C11.4202 1.17557 10.6819 0.497559 9.42382 0.497559H6.5611C5.30301 0.497559 4.56473 1.17557 4.56473 2.33573V3.46575H1.23493C0.858255 3.46575 0.556915 3.75956 0.556915 4.1287C0.556915 4.51291 0.858255 4.80671 1.23493 4.80671H2.06361L2.56836 15.6549C2.62862 16.8226 3.3669 17.5157 4.54213 17.5157ZM5.97349 2.40353C5.97349 2.01932 6.24469 1.77072 6.65904 1.77072H9.32589C9.74023 1.77072 10.0114 2.01932 10.0114 2.40353V3.46575H5.97349V2.40353ZM4.6928 16.1672C4.27846 16.1672 3.97712 15.8583 3.95452 15.4139L3.44977 4.80671H12.5276L12.0379 15.4139C12.0229 15.8659 11.7291 16.1672 11.2997 16.1672H4.6928ZM5.77762 14.9543C6.10156 14.9543 6.30496 14.7509 6.29743 14.4496L6.07142 6.56955C6.06389 6.26821 5.85295 6.07234 5.54408 6.07234C5.22767 6.07234 5.02427 6.27574 5.0318 6.57708L5.25781 14.4571C5.26534 14.7584 5.47628 14.9543 5.77762 14.9543ZM8 14.9543C8.3164 14.9543 8.53487 14.7584 8.53487 14.4571V6.57708C8.53487 6.27574 8.3164 6.07234 8 6.07234C7.68359 6.07234 7.47265 6.27574 7.47265 6.57708V14.4571C7.47265 14.7584 7.68359 14.9543 8 14.9543ZM10.2224 14.9618C10.5237 14.9618 10.7346 14.7584 10.7422 14.4571L10.9682 6.57708C10.9757 6.27574 10.7723 6.07987 10.4559 6.07987C10.147 6.07987 9.9361 6.27574 9.92857 6.57708L9.70256 14.4571C9.69503 14.7509 9.89843 14.9618 10.2224 14.9618Z" fill="#E83131"/>
</svg>
