<svg width="18" height="10" viewBox="0 0 18 10" fill="none" xmlns="http://www.w3.org/2000/svg">
<path fill-rule="evenodd" clip-rule="evenodd" d="M0 0.75C0 0.335786 0.335786 0 0.75 0H16.75C17.1642 0 17.5 0.335786 17.5 0.75C17.5 1.16421 17.1642 1.5 16.75 1.5H0.75C0.335786 1.5 0 1.16421 0 0.75Z" fill="#1A1A1A" fill-opacity="0.4"/>
<path fill-rule="evenodd" clip-rule="evenodd" d="M2 4.75C2 4.33579 2.33579 4 2.75 4L14.75 4C15.1642 4 15.5 4.33579 15.5 4.75C15.5 5.16421 15.1642 5.5 14.75 5.5L2.75 5.5C2.33579 5.5 2 5.16421 2 4.75Z" fill="#1A1A1A" fill-opacity="0.4"/>
<path fill-rule="evenodd" clip-rule="evenodd" d="M4 8.75C4 8.33579 4.33579 8 4.75 8L12.75 8C13.1642 8 13.5 8.33579 13.5 8.75C13.5 9.16421 13.1642 9.5 12.75 9.5L4.75 9.5C4.33579 9.5 4 9.16421 4 8.75Z" fill="#1A1A1A" fill-opacity="0.4"/>
</svg>
