<svg width="19" height="17" viewBox="0 0 19 17" fill="none" xmlns="http://www.w3.org/2000/svg">
<path d="M11 16.5009C15.2639 16.5009 18.7896 12.9752 18.7896 8.71125C18.7896 4.43976 15.2564 0.914093 10.9925 0.914093C7.04491 0.914093 3.72264 3.94255 3.2631 7.80723C3.60211 7.73189 3.94865 7.69423 4.31025 7.69423C6.6381 7.69423 8.60434 9.32899 9.10908 11.4534C9.68163 11.3178 10.3069 11.235 10.9925 11.235C13.147 11.235 14.8044 12.026 15.5954 12.9225C14.4805 14.1655 12.8005 14.9565 10.9925 14.9565C10.2843 14.9565 9.50836 14.8134 8.84541 14.5497C8.71734 14.9565 8.40847 15.4612 8.01673 15.8907C8.94335 16.2824 9.9453 16.5009 11 16.5009ZM10.9925 9.93167C9.53096 9.9166 8.40847 8.69618 8.40094 7.08401C8.38587 5.56225 9.53849 4.28909 10.9925 4.28909C12.4389 4.28909 13.584 5.56225 13.584 7.08401C13.584 8.69618 12.4539 9.94674 10.9925 9.93167ZM4.31025 16.531C6.41963 16.531 8.19 14.7682 8.19 12.6437C8.19 10.5193 6.44223 8.76398 4.31025 8.76398C2.18581 8.76398 0.430511 10.5193 0.430511 12.6437C0.430511 14.7757 2.18581 16.531 4.31025 16.531ZM1.84681 12.6437C1.84681 12.3349 2.05774 12.1314 2.36662 12.1314H3.79044V10.7076C3.79044 10.3987 3.99385 10.1878 4.31025 10.1878C4.62666 10.1878 4.83007 10.3987 4.83007 10.7076V12.1314H6.25389C6.56277 12.1314 6.7737 12.3349 6.7737 12.6437C6.7737 12.9601 6.56277 13.1635 6.25389 13.1635H4.83007V14.5949C4.83007 14.9038 4.62666 15.1147 4.31025 15.1147C3.99385 15.1147 3.79044 14.9038 3.79044 14.5949V13.1635H2.36662C2.05774 13.1635 1.85434 12.9601 1.84681 12.6437Z" fill="#1C1C1E"/>
</svg>
