<svg width="16" height="15" viewBox="0 0 16 15" fill="none" xmlns="http://www.w3.org/2000/svg">
<path d="M3.43472 14.7551H12.5578C14.1925 14.7551 15.0363 13.9113 15.0363 12.2991V3.13089C15.0363 1.51873 14.1925 0.674976 12.5578 0.674976H3.43472C1.80749 0.674976 0.956207 1.51119 0.956207 3.13089V12.2991C0.956207 13.9113 1.80749 14.7551 3.43472 14.7551ZM10.4635 9.76036C10.0642 9.76036 9.80805 9.48915 9.80805 9.05221V7.81672L9.91352 6.69423L8.8739 7.83932L6.16184 10.5514C6.01117 10.702 5.83037 10.7774 5.6119 10.7774C5.21262 10.7774 4.91882 10.4986 4.91882 10.0768C4.91882 9.88842 5.00169 9.70009 5.14482 9.56449L7.87194 6.83736L9.02457 5.79021L7.96235 5.91075H6.65152C6.22211 5.91075 5.93584 5.65461 5.93584 5.25533C5.93584 4.85606 6.21458 4.59992 6.64399 4.59992H10.3053C10.8025 4.59992 11.1113 4.85606 11.1113 5.406V9.03714C11.1113 9.46655 10.8552 9.76036 10.4635 9.76036Z" fill="#1C1C1E"/>
</svg>
