<svg width="17" height="15" viewBox="0 0 17 15" fill="none" xmlns="http://www.w3.org/2000/svg">
<path d="M0.808433 13.8726C1.22394 14.2881 1.84719 14.2401 2.55568 13.9259L15.2658 8.2473C15.5961 8.09814 15.8571 7.94366 16.0383 7.76254C16.4165 7.38433 16.4165 6.9049 16.0329 6.52136C15.8571 6.34557 15.5961 6.18043 15.2712 6.0366L2.49708 0.336738C1.86317 0.0544082 1.22926 -0.00418857 0.81376 0.411316C0.30237 0.922705 0.488814 1.49269 0.856376 2.16922L3.57313 7.14461L0.888337 12.0667C0.504795 12.7699 0.297043 13.3612 0.808433 13.8726ZM4.86226 6.47341L2.56633 2.15324C2.50774 2.05202 2.51307 2.00408 2.54503 1.97212C2.58232 1.93483 2.63559 1.92418 2.72614 1.97212L11.4677 5.87679C12.0963 6.1538 12.7515 6.38286 13.46 6.64388C12.7675 6.5693 11.9205 6.47874 11.2813 6.47874L4.86226 6.47341ZM2.54503 12.3278C2.50774 12.2905 2.51307 12.2319 2.56633 12.136L4.86226 7.81581L11.2813 7.81049C11.9045 7.80516 12.7835 7.7146 13.4813 7.6347C12.7675 7.90104 12.1016 8.1301 11.4677 8.41243L2.72614 12.3171C2.63026 12.3597 2.58232 12.3651 2.54503 12.3278Z" fill="white"/>
</svg>
