<svg width="17" height="17" viewBox="0 0 17 17" fill="none" xmlns="http://www.w3.org/2000/svg">
<path fill-rule="evenodd" clip-rule="evenodd" d="M15.3255 6.82661C15.3255 9.71318 12.9854 12.0532 10.0989 12.0532C7.21228 12.0532 4.87225 9.71318 4.87225 6.82661C4.87225 3.94003 7.21228 1.6 10.0989 1.6C12.9854 1.6 15.3255 3.94003 15.3255 6.82661ZM16.9255 6.82661C16.9255 10.5968 13.8691 13.6532 10.0989 13.6532C8.50215 13.6532 7.03347 13.105 5.87077 12.1866L2.13131 15.9261C1.81889 16.2385 1.31236 16.2385 0.99994 15.9261C0.68752 15.6136 0.68752 15.1071 0.99994 14.7947L4.73933 11.0553C3.82062 9.8925 3.27225 8.42359 3.27225 6.82661C3.27225 3.05638 6.32862 0 10.0989 0C13.8691 0 16.9255 3.05638 16.9255 6.82661Z" fill="#1A1A1A" fill-opacity="0.4"/>
</svg>
