<svg width="16" height="17" viewBox="0 0 16 17" fill="none" xmlns="http://www.w3.org/2000/svg">
<path d="M7.99244 16.4933C12.2639 16.4933 15.7896 12.9676 15.7896 8.70368C15.7896 4.43973 12.2564 0.914062 7.98491 0.914062C3.72096 0.914062 0.20282 4.43973 0.20282 8.70368C0.20282 12.9676 3.72849 16.4933 7.99244 16.4933ZM7.99244 14.9414C4.53457 14.9414 1.76978 12.1616 1.76978 8.70368C1.76978 5.24581 4.53457 2.47349 7.98491 2.47349C11.4428 2.47349 14.2226 5.24581 14.2302 8.70368C14.2377 12.1616 11.4503 14.9414 7.99244 14.9414ZM8.79099 11.1144L11.6763 8.04827C11.9249 7.77706 11.9325 7.37779 11.6989 7.14425C11.4352 6.88811 11.0284 6.88058 10.7874 7.13672L7.99244 10.1049L5.19752 7.13672C4.95645 6.88058 4.54211 6.88058 4.28597 7.14425C4.05996 7.38532 4.05996 7.77706 4.30857 8.04074L7.19389 11.1069C7.67603 11.6267 8.30885 11.6267 8.79099 11.1144Z" fill="#1A1A1A"/>
</svg>
