<svg width="16" height="20" viewBox="0 0 16 20" fill="none" xmlns="http://www.w3.org/2000/svg">
<path d="M8 0C7.26359 0 6.66667 0.639594 6.66667 1.42857V2.30215C3.99471 2.95177 2 5.51202 2 8.57143V10.7143C2 12.5689 1.43856 14.3735 0.399984 15.8571L0 16.4286H16L15.6 15.8571C14.5614 14.3735 14 12.5689 14 10.7143V8.57143C14 5.51202 12.0053 2.95177 9.33333 2.30215V1.42857C9.33333 0.639594 8.73641 0 8 0Z" fill="#1A1A1A"/>
<path d="M6 17.8571C6 19.0406 6.89543 20 8 20C9.10457 20 10 19.0406 10 17.8571V17.1429H6V17.8571Z" fill="#1A1A1A"/>
</svg>
