<svg width="19" height="17" viewBox="0 0 19 17" fill="none" xmlns="http://www.w3.org/2000/svg">
<path d="M0.330933 12.299C0.330933 13.9111 1.18222 14.7549 2.80945 14.7549H10.6669C10.3881 14.3029 10.1923 13.7906 10.1019 13.2557H2.80191C2.17664 13.2557 1.8301 12.9318 1.8301 12.2688V5.33803C1.8301 4.67508 2.17664 4.35114 2.80191 4.35114H13.1906C13.8159 4.35114 14.1624 4.67508 14.1624 5.33803V7.357C14.4261 7.3118 14.6747 7.2892 14.9233 7.2892C15.1719 7.2892 15.4205 7.3118 15.6691 7.34947V3.13072C15.6691 1.51855 14.8178 0.674805 13.1831 0.674805H2.80945C1.18222 0.674805 0.330933 1.51102 0.330933 3.13072V12.299ZM6.54606 6.9502H6.99053C7.26174 6.9502 7.35214 6.86733 7.35214 6.60366V6.15918C7.35214 5.88797 7.26174 5.80511 6.99053 5.80511H6.54606C6.27485 5.80511 6.18445 5.88797 6.18445 6.15918V6.60366C6.18445 6.86733 6.27485 6.9502 6.54606 6.9502ZM9.0095 6.9502H9.45398C9.71765 6.9502 9.80805 6.86733 9.80805 6.60366V6.15918C9.80805 5.88797 9.71765 5.80511 9.45398 5.80511H9.0095C8.7383 5.80511 8.6479 5.88797 8.6479 6.15918V6.60366C8.6479 6.86733 8.7383 6.9502 9.0095 6.9502ZM11.4654 6.9502H11.9099C12.1811 6.9502 12.2715 6.86733 12.2715 6.60366V6.15918C12.2715 5.88797 12.1811 5.80511 11.9099 5.80511H11.4654C11.2017 5.80511 11.1113 5.88797 11.1113 6.15918V6.60366C11.1113 6.86733 11.2017 6.9502 11.4654 6.9502ZM4.09014 9.37598H4.52708C4.79829 9.37598 4.88869 9.29311 4.88869 9.0219V8.57743C4.88869 8.31376 4.79829 8.23089 4.52708 8.23089H4.09014C3.81893 8.23089 3.72853 8.31376 3.72853 8.57743V9.0219C3.72853 9.29311 3.81893 9.37598 4.09014 9.37598ZM6.54606 9.37598H6.99053C7.26174 9.37598 7.35214 9.29311 7.35214 9.0219V8.57743C7.35214 8.31376 7.26174 8.23089 6.99053 8.23089H6.54606C6.27485 8.23089 6.18445 8.31376 6.18445 8.57743V9.0219C6.18445 9.29311 6.27485 9.37598 6.54606 9.37598ZM9.0095 9.37598H9.45398C9.71765 9.37598 9.80805 9.29311 9.80805 9.0219V8.57743C9.80805 8.31376 9.71765 8.23089 9.45398 8.23089H9.0095C8.7383 8.23089 8.6479 8.31376 8.6479 8.57743V9.0219C8.6479 9.29311 8.7383 9.37598 9.0095 9.37598ZM14.9233 16.126C17.0327 16.126 18.8106 14.3631 18.8106 12.2387C18.8106 10.1143 17.0553 8.35896 14.9233 8.35896C12.7988 8.35896 11.0435 10.1143 11.0435 12.2387C11.0435 14.3707 12.7988 16.126 14.9233 16.126ZM12.4598 12.2387C12.4598 11.9298 12.6708 11.7264 12.9796 11.7264H14.4035V10.3026C14.4035 9.99372 14.6144 9.78278 14.9233 9.78278C15.2397 9.78278 15.4431 9.99372 15.4431 10.3026V11.7264H16.8669C17.1758 11.7264 17.3867 11.9298 17.3867 12.2387C17.3867 12.5551 17.1758 12.7585 16.8669 12.7585H15.4431V14.1899C15.4431 14.4987 15.2397 14.7021 14.9233 14.7021C14.6144 14.7021 14.4035 14.4987 14.4035 14.1899V12.7585H12.9796C12.6708 12.7585 12.4674 12.5551 12.4598 12.2387ZM4.09014 11.7942H4.52708C4.79829 11.7942 4.88869 11.7114 4.88869 11.4477V11.0032C4.88869 10.732 4.79829 10.6491 4.52708 10.6491H4.09014C3.81893 10.6491 3.72853 10.732 3.72853 11.0032V11.4477C3.72853 11.7114 3.81893 11.7942 4.09014 11.7942ZM6.54606 11.7942H6.99053C7.26174 11.7942 7.35214 11.7114 7.35214 11.4477V11.0032C7.35214 10.732 7.26174 10.6491 6.99053 10.6491H6.54606C6.27485 10.6491 6.18445 10.732 6.18445 11.0032V11.4477C6.18445 11.7114 6.27485 11.7942 6.54606 11.7942ZM9.0095 11.7942H9.45398C9.71765 11.7942 9.80805 11.7114 9.80805 11.4477V11.0032C9.80805 10.732 9.71765 10.6491 9.45398 10.6491H9.0095C8.7383 10.6491 8.6479 10.732 8.6479 11.0032V11.4477C8.6479 11.7114 8.7383 11.7942 9.0095 11.7942Z" fill="white"/>
</svg>
