<svg width="16" height="16" viewBox="0 0 16 16" fill="none" xmlns="http://www.w3.org/2000/svg">
<path d="M14.4808 2.6694L15.0458 2.07426C15.332 1.77292 15.3546 1.35857 15.0684 1.0723L14.8725 0.868898C14.6164 0.61276 14.187 0.650427 13.9082 0.929166L13.3206 1.50171L14.4808 2.6694ZM5.56112 10.685L7.10548 10.0371L13.9308 3.21181L12.7707 2.05919L5.94533 8.89206L5.26731 10.3837C5.19198 10.557 5.38785 10.7528 5.56112 10.685ZM2.69839 15.74H11.4749C12.9213 15.74 13.7726 14.8962 13.7726 13.2841V5.32872L12.2659 6.82788V13.1485C12.2659 13.8717 11.8817 14.2333 11.377 14.2333H2.79633C2.10325 14.2333 1.72658 13.8717 1.72658 13.1485V4.77878C1.72658 4.05556 2.10325 3.69395 2.79633 3.69395H9.19226L10.6914 2.18726H2.69839C1.07116 2.18726 0.219879 3.03101 0.219879 4.64317V13.2841C0.219879 14.8962 1.07116 15.74 2.69839 15.74Z" fill="#3162E8"/>
</svg>
