<svg width="16" height="20" viewBox="0 0 16 20" fill="none" xmlns="http://www.w3.org/2000/svg">
<path d="M12.2263 2.65946C12.2263 1.03223 11.3976 0.188477 9.78543 0.188477H2.62862C1.01645 0.188477 0.180237 1.03223 0.180237 2.65946V12.8749C0.180237 14.4946 1.01645 15.3458 2.62862 15.3458H3.75864V16.7471C3.75864 18.3743 4.60239 19.2181 6.20702 19.2181H13.3638C14.9685 19.2181 15.8122 18.3743 15.8122 16.7471V6.46387C15.8122 4.83663 14.976 3.99288 13.3638 3.99288H12.2263V2.65946ZM2.74915 13.8693C2.01841 13.8693 1.6568 13.4775 1.6568 12.7845V2.74986C1.6568 2.04925 2.01841 1.66504 2.74915 1.66504H9.65736C10.3881 1.66504 10.7497 2.04925 10.7497 2.74986V3.99288H6.20702C4.59486 3.99288 3.75864 4.83663 3.75864 6.46387V13.8693H2.74915ZM14.3356 6.55427V16.6567C14.3356 17.3497 13.9665 17.7415 13.2358 17.7415H6.33509C5.60434 17.7415 5.2352 17.3497 5.2352 16.6567V6.55427C5.2352 5.85365 5.60434 5.46945 6.33509 5.46945H13.2358C13.9665 5.46945 14.3356 5.85365 14.3356 6.55427Z" fill="#3162E8"/>
</svg>
