<svg width="22" height="14" viewBox="0 0 22 14" fill="none" xmlns="http://www.w3.org/2000/svg">
<path d="M11.0076 13.243C17.1926 13.243 21.3511 8.25586 21.3511 6.71149C21.3511 5.16713 17.1775 0.1875 11.0076 0.1875C4.913 0.1875 0.649048 5.16713 0.649048 6.71149C0.649048 8.25586 4.89793 13.243 11.0076 13.243ZM11.0076 11.7665C6.20122 11.7665 2.39682 7.76618 2.39682 6.71149C2.39682 5.83008 6.20122 1.66406 11.0076 1.66406C15.7913 1.66406 19.6033 5.83008 19.6033 6.71149C19.6033 7.76618 15.7913 11.7665 11.0076 11.7665ZM11.0076 10.757C13.2526 10.757 15.0531 8.91127 15.0531 6.71149C15.0531 4.45898 13.2526 2.67355 11.0076 2.67355C8.74754 2.67355 6.93951 4.45898 6.94704 6.71149C6.96211 8.91127 8.74754 10.757 11.0076 10.757ZM11.0001 8.01479C10.2768 8.01479 9.68923 7.42718 9.68923 6.71149C9.68923 5.99581 10.2768 5.4082 11.0001 5.4082C11.7233 5.4082 12.3109 5.99581 12.3109 6.71149C12.3109 7.42718 11.7233 8.01479 11.0001 8.01479Z" fill="#1A1A1A"/>
</svg>
