<svg width="16" height="18" viewBox="0 0 16 18" fill="none" xmlns="http://www.w3.org/2000/svg">
<path d="M13.0625 9.11038L7.49525 14.6776C6.08649 16.0939 4.18805 15.9583 2.97516 14.7379C1.7472 13.5175 1.6116 11.6341 3.03543 10.2103L10.6442 2.60145C11.4729 1.77277 12.7084 1.62964 13.5145 2.43572C14.3206 3.24933 14.1699 4.47729 13.3412 5.29844L5.87555 12.7792C5.54408 13.1182 5.15234 13.0203 4.91126 12.7943C4.69279 12.5607 4.60239 12.169 4.93387 11.83L10.1395 6.62433C10.4032 6.35313 10.4182 5.96139 10.1621 5.70525C9.90596 5.46418 9.51422 5.47171 9.25055 5.73538L4.02231 10.9636C3.2087 11.7772 3.23883 13.0203 3.96205 13.7435C4.74553 14.527 5.92828 14.5044 6.7419 13.6907L14.2452 6.17986C15.7067 4.7259 15.654 2.80486 14.3733 1.52417C13.1152 0.273608 11.1641 0.183207 9.70256 1.6447L2.04854 9.30625C0.14257 11.2198 0.270639 13.9619 2.01087 15.7022C3.74357 17.4273 6.4933 17.563 8.39927 15.657L14.0042 10.0596C14.2603 9.80346 14.2603 9.33639 13.9966 9.09532C13.748 8.82411 13.3262 8.86178 13.0625 9.11038Z" fill="#1A1A1A" fill-opacity="0.4"/>
</svg>
