<svg width="14" height="17" viewBox="0 0 14 17" fill="none" xmlns="http://www.w3.org/2000/svg">
<path d="M2.98466 16.87H11.0153C12.635 16.87 13.4713 16.0187 13.4713 14.3915V7.55106C13.4713 6.49637 13.3357 6.01423 12.6802 5.34375L8.74024 1.34347C8.09989 0.695592 7.57255 0.544922 6.62333 0.544922H2.98466C1.37249 0.544922 0.52874 1.39621 0.52874 3.03097V14.3915C0.52874 16.0187 1.37249 16.87 2.98466 16.87ZM3.11272 15.3633C2.38951 15.3633 2.0279 14.9866 2.0279 14.2935V3.12137C2.0279 2.43583 2.38951 2.05162 3.12026 2.05162H6.31445V6.14983C6.31445 7.24219 6.84933 7.76953 7.93415 7.76953H11.9721V14.2935C11.9721 14.9866 11.6105 15.3633 10.8797 15.3633H3.11272ZM8.07729 6.45117C7.76088 6.45117 7.62528 6.31557 7.62528 6.0067V2.24749L11.7687 6.45117H8.07729Z" fill="#1A1A1A" fill-opacity="0.2"/>
</svg>
