<svg width="16" height="12" viewBox="0 0 16 12" fill="none" xmlns="http://www.w3.org/2000/svg">
<path d="M1.73898 11.8655H14.2383C15.3809 11.8655 15.9773 11.2879 15.9773 10.1265V1.73898C15.9773 0.577567 15.3809 0 14.2383 0H1.73898C0.596401 0 0 0.577567 0 1.73898V10.1265C0 11.2879 0.596401 11.8655 1.73898 11.8655ZM1.21791 1.81431C1.21791 1.38742 1.40625 1.21791 1.82059 1.21791H14.1567C14.571 1.21791 14.7593 1.38742 14.7593 1.81431V9.49874L11.3756 6.3284C11.0993 6.07101 10.7729 5.94545 10.4339 5.94545C10.0949 5.94545 9.78097 6.06473 9.49219 6.32213L6.39718 9.09068L4.9721 7.80999C4.7147 7.57143 4.42592 7.45215 4.12458 7.45215C3.8358 7.45215 3.57213 7.57143 3.32101 7.79743L1.21791 9.6808V1.81431ZM5.38016 6.0505C6.19629 6.0505 6.8743 5.37249 6.8743 4.53753C6.8743 3.71512 6.19629 3.03083 5.38016 3.03083C4.5452 3.03083 3.86091 3.71512 3.86091 4.53753C3.86091 5.37249 4.5452 6.0505 5.38016 6.0505Z" fill="#fff"/>
</svg>
