<svg width="16" height="16" viewBox="0 0 16 16" fill="none" xmlns="http://www.w3.org/2000/svg">
<path d="M8 9.82266C8.35105 9.82266 8.6346 9.53755 8.6346 9.19813V2.67459L8.58059 1.66992L8.99916 2.16546L9.9443 3.17692C10.0523 3.29911 10.2076 3.3602 10.3629 3.3602C10.6734 3.3602 10.93 3.13619 10.93 2.81714C10.93 2.64743 10.8624 2.52524 10.7477 2.40984L8.48608 0.217225C8.3173 0.0543063 8.16878 0 8 0C7.83797 0 7.6827 0.0543063 7.52067 0.217225L5.25232 2.40984C5.13755 2.52524 5.07679 2.64743 5.07679 2.81714C5.07679 3.13619 5.32658 3.3602 5.63713 3.3602C5.7924 3.3602 5.95443 3.29911 6.06245 3.17692L7.00084 2.16546L7.41941 1.66313L7.37215 2.67459V9.19813C7.37215 9.53755 7.6557 9.82266 8 9.82266ZM2.2211 16H13.7722C15.2371 16 16 15.2397 16 13.787V10.1146C16 9.42894 15.9257 9.1031 15.6017 8.66186L13.4549 5.80399C12.638 4.6975 12.2599 4.47348 11.0447 4.47348H9.88354V5.60034H11.092C11.5443 5.60034 11.8481 5.69538 12.1857 6.1434L14.4 9.15061C14.6295 9.45609 14.5485 9.58507 14.2042 9.58507H10.1738C9.78228 9.58507 9.60675 9.86339 9.60675 10.1553V10.1824C9.60675 10.9767 8.9924 11.8252 8 11.8252C7.00759 11.8252 6.39325 10.9767 6.39325 10.1824V10.1553C6.39325 9.86339 6.21772 9.58507 5.82616 9.58507H1.79578C1.44473 9.58507 1.38397 9.43572 1.59325 9.15061L3.80084 6.15698C4.14515 5.70216 4.44895 5.60034 4.90802 5.60034H6.11646V4.47348H4.95527C3.73333 4.47348 3.36878 4.6975 2.53165 5.81756L0.391561 8.66186C0.0742616 9.1031 0 9.42894 0 10.1146V13.787C0 15.2397 0.762869 16 2.2211 16Z" fill="#1C1C1E"/>
</svg>
