<svg width="16" height="17" viewBox="0 0 16 17" fill="none" xmlns="http://www.w3.org/2000/svg">
<path d="M7.99247 16.4933C12.264 16.4933 15.7896 12.9676 15.7896 8.7037C15.7896 4.43975 12.2564 0.914078 7.98494 0.914078C3.72099 0.914078 0.20285 4.43975 0.20285 8.7037C0.20285 12.9676 3.72852 16.4933 7.99247 16.4933ZM6.1317 5.29856C6.98298 5.29856 7.6158 5.78824 7.98494 6.45119C8.35408 5.78824 9.00196 5.29856 9.83817 5.29856C11.1264 5.29856 12.0832 6.28545 12.0832 7.67161C12.0832 9.81112 9.74024 11.6493 8.39928 12.5156C8.27121 12.5985 8.11301 12.704 8 12.704C7.89454 12.704 7.71373 12.5985 7.5706 12.5156C6.2221 11.6644 3.89426 9.81112 3.89426 7.67161C3.89426 6.28545 4.85101 5.29856 6.1317 5.29856Z" fill="#1C1C1E"/>
</svg>
