<svg width="18" height="17" viewBox="0 0 18 17" fill="none" xmlns="http://www.w3.org/2000/svg">
<path d="M5.16545 16.1487C5.47432 16.1487 5.71539 15.9981 6.08453 15.6515L8.85686 13.1504H13.7988C16.0664 13.158 17.3396 11.8547 17.3396 9.61722V3.77123C17.3396 1.53379 16.0664 0.238029 13.7988 0.238029H4.19363C1.92605 0.238029 0.652893 1.53379 0.652893 3.77123V9.61722C0.652893 11.8547 1.95619 13.1504 4.1409 13.1504H4.44223V15.3351C4.44223 15.8248 4.71344 16.1487 5.16545 16.1487ZM8.16377 10.4082C7.8775 10.4082 7.64396 10.2877 7.43303 10.009L5.58732 7.76398C5.45172 7.59824 5.38392 7.41744 5.38392 7.2291C5.38392 6.84489 5.68526 6.52849 6.077 6.52849C6.31054 6.52849 6.49134 6.61889 6.67968 6.85996L8.13364 8.70566L11.2525 3.7185C11.4107 3.46236 11.6292 3.32676 11.8627 3.32676C12.2394 3.32676 12.5784 3.59043 12.5784 3.98217C12.5784 4.15544 12.4955 4.34378 12.3825 4.51705L8.85686 10.009C8.69112 10.2726 8.44251 10.4082 8.16377 10.4082Z" fill="#1C1C1E"/>
</svg>
