<svg width="16" height="15" viewBox="0 0 16 15" fill="none" xmlns="http://www.w3.org/2000/svg">
<path d="M5.65001 7.0001C5.65001 6.64111 5.35899 6.3501 5.00001 6.3501C4.64102 6.3501 4.35001 6.64111 4.35001 7.0001L4.35001 11.0001C4.35001 11.3591 4.64102 11.6501 5.00001 11.6501C5.35899 11.6501 5.65001 11.3591 5.65001 11.0001V7.0001Z" fill="#1A1A1A" fill-opacity="0.2"/>
<path d="M11 7.3501C11.359 7.3501 11.65 7.64111 11.65 8.0001V11.0001C11.65 11.3591 11.359 11.6501 11 11.6501C10.641 11.6501 10.35 11.3591 10.35 11.0001V8.0001C10.35 7.64111 10.641 7.3501 11 7.3501Z" fill="#1A1A1A" fill-opacity="0.2"/>
<path d="M8.65001 5.0001C8.65001 4.64111 8.35899 4.3501 8.00001 4.3501C7.64102 4.3501 7.35001 4.64111 7.35001 5.0001L7.35001 11.0001C7.35001 11.3591 7.64102 11.6501 8.00001 11.6501C8.35899 11.6501 8.65001 11.3591 8.65001 11.0001V5.0001Z" fill="#1A1A1A" fill-opacity="0.2"/>
<path fill-rule="evenodd" clip-rule="evenodd" d="M10.8853 0.705078C12.264 0.705078 13.3337 0.863281 14.1172 1.63923C14.8856 2.40765 15.0287 3.46987 15.0287 4.85603V10.5739C15.0287 11.9601 14.8856 13.0148 14.1172 13.7907C13.3412 14.5667 12.264 14.7174 10.8853 14.7174H5.11468C3.73606 14.7174 2.6663 14.5667 1.89035 13.7907C1.1144 13.0223 0.971268 11.9601 0.971268 10.5739V4.83343C0.971268 3.46987 1.1144 2.40765 1.89035 1.63923C2.6663 0.863281 3.73606 0.705078 5.09962 0.705078H10.8853ZM13.5296 10.7849V4.64509C13.5296 3.86161 13.4316 3.15346 13.0173 2.73158C12.5954 2.31724 11.8798 2.21177 11.0963 2.21177H4.92635C4.1278 2.21177 3.40458 2.31724 2.99024 2.73158C2.5759 3.14593 2.47043 3.86161 2.47043 4.66016V10.7849C2.47043 11.5684 2.5759 12.2765 2.99024 12.6908C3.40458 13.1052 4.1278 13.2182 4.91128 13.2182H11.0963C11.8798 13.2182 12.5954 13.1127 13.0173 12.6908C13.4316 12.2765 13.5296 11.5684 13.5296 10.7849Z" fill="#1A1A1A" fill-opacity="0.2"/>
</svg>
