<svg width="26" height="26" viewBox="0 0 26 26" fill="none" xmlns="http://www.w3.org/2000/svg">
<path fill-rule="evenodd" clip-rule="evenodd" d="M14.379 1.51L16.197 3.328C16.3781 3.50907 16.5931 3.65269 16.8297 3.75066C17.0663 3.84863 17.3199 3.89904 17.576 3.899H20.15C20.6346 3.89926 21.1018 4.07996 21.4604 4.40589C21.8191 4.73181 22.0435 5.17961 22.09 5.662L22.1 5.85V8.423C22.1 8.94 22.305 9.436 22.67 9.802L24.49 11.622C24.831 11.9631 25.0336 12.4184 25.0585 12.9001C25.0835 13.3817 24.929 13.8556 24.625 14.23L24.49 14.379L22.67 16.197C22.489 16.3783 22.3455 16.5935 22.2477 16.8303C22.1499 17.0671 22.0997 17.3208 22.1 17.577V20.15C22.1 20.6346 21.9196 21.1019 21.5938 21.4608C21.2681 21.8196 20.8204 22.0443 20.338 22.091L20.15 22.1H17.576C17.3198 22.0997 17.0661 22.1499 16.8293 22.2477C16.5925 22.3455 16.3773 22.489 16.196 22.67L14.379 24.49C14.0378 24.8316 13.5821 25.0345 13.1 25.0595C12.6178 25.0844 12.1436 24.9296 11.769 24.625L11.621 24.49L9.801 22.67C9.43532 22.3049 8.93971 22.0999 8.423 22.1H5.85C5.36536 22.1 4.89808 21.9196 4.53924 21.5938C4.1804 21.2681 3.95572 20.8204 3.909 20.338L3.899 20.15V17.576C3.89934 17.0589 3.69431 16.5629 3.329 16.197L1.509 14.379C1.16768 14.0376 0.965146 13.5817 0.940578 13.0996C0.91601 12.6174 1.07116 12.1433 1.376 11.769L1.509 11.621L3.329 9.801C3.69406 9.43533 3.89907 8.93972 3.899 8.423V5.85C3.9 4.773 4.774 3.9 5.85 3.9H8.423C8.67916 3.89991 8.93279 3.84935 9.1694 3.7512C9.40602 3.65305 9.62098 3.50925 9.802 3.328L11.62 1.51C11.8011 1.32889 12.0161 1.18522 12.2527 1.08719C12.4893 0.989172 12.7429 0.938721 12.999 0.938721C13.2551 0.938721 13.5087 0.989172 13.7453 1.08719C13.9819 1.18522 14.1979 1.32889 14.379 1.51ZM17.574 9.557C17.3703 9.39432 17.1147 9.31079 16.8543 9.32181C16.5938 9.33284 16.3462 9.43769 16.157 9.617L16.057 9.726L11.609 15.284L9.863 13.537L9.753 13.44C9.54509 13.2832 9.28753 13.2068 9.02775 13.2249C8.76797 13.2429 8.52347 13.3543 8.33927 13.5383C8.15508 13.7224 8.04359 13.9668 8.02535 14.2266C8.00711 14.4864 8.08334 14.744 8.24 14.952L8.337 15.063L10.937 17.663L11.047 17.759C11.2511 17.914 11.5037 17.9914 11.7597 17.9773C12.0156 17.9632 12.2582 17.8585 12.444 17.682L12.543 17.574L17.743 11.074L17.826 10.954C17.9599 10.73 18.0081 10.4651 17.9618 10.2083C17.9154 9.95148 17.7777 9.72012 17.574 9.557Z" fill="#3162E8"/>
</svg>
