<svg width="16" height="13" viewBox="0 0 16 13" fill="none" xmlns="http://www.w3.org/2000/svg">
<path d="M2.62611 12.6294H13.3676C14.7299 12.6294 15.4393 11.9263 15.4393 10.5828V2.94259C15.4393 1.59912 14.7299 0.895996 13.3676 0.895996H2.62611C1.27009 0.895996 0.560684 1.59284 0.560684 2.94259V10.5828C0.560684 11.9263 1.27009 12.6294 2.62611 12.6294ZM2.70773 11.3801C2.13016 11.3801 1.80999 11.0788 1.80999 10.4698V3.05559C1.80999 2.44664 2.13016 2.1453 2.70773 2.1453H13.286C13.8636 2.1453 14.1837 2.44664 14.1837 3.05559V10.4698C14.1837 11.0788 13.8636 11.3801 13.286 11.3801H2.70773ZM10.4358 7.10484C10.7058 6.94789 10.6995 6.57122 10.4358 6.41427L6.82603 4.28606C6.5498 4.12284 6.18568 4.26095 6.18568 4.56857V8.95054C6.18568 9.25188 6.53097 9.40255 6.82603 9.22677L10.4358 7.10484Z" fill="#E6E6E6" fill-opacity="0.8"/>
</svg>
